<?xml version="1.0" encoding="UTF-8"?>
<svg version="1.1" xmlns="http://www.w3.org/2000/svg" width="512" height="512">
<path d="M0 0 C1.65 0 3.3 0 5 0 C5.05607422 1.13888672 5.05607422 1.13888672 5.11328125 2.30078125 C5.21189453 3.79158203 5.21189453 3.79158203 5.3125 5.3125 C5.37050781 6.29863281 5.42851563 7.28476563 5.48828125 8.30078125 C6.06397808 11.33747215 6.80210648 11.97608222 9 14 C9.375 17.5 9.375 17.5 9 21 C7.5625 22.6875 7.5625 22.6875 6 24 C5.28552357 26.10332891 5.28552357 26.10332891 5 28 C5.99 28.33 6.98 28.66 8 29 C9.39935013 31.79870027 9.25265405 33.90498792 9 37 C8.49580914 37.43684648 7.99161827 37.87369295 7.4721489 38.3237772 C5.72381179 39.96521133 5.72381179 39.96521133 5.86003494 42.68366146 C5.97077724 43.73913457 6.08151955 44.79460768 6.19561768 45.88206482 C6.31492897 47.04827803 6.43424026 48.21449123 6.55716705 49.41604424 C7.23758789 54.92285714 8.00769197 60.40571708 8.87011719 65.88696289 C9.15089615 67.70896713 9.15089615 67.70896713 9.43734741 69.56777954 C10.05115024 73.53704098 10.67303085 77.50496484 11.296875 81.47265625 C11.51258661 82.84856147 11.72823607 84.22447644 11.94382477 85.60040092 C12.95559834 92.05330354 13.97234577 98.50539797 14.99528956 104.95653921 C16.1721642 112.37959299 17.33131188 119.80514255 18.47592044 127.23323828 C19.36554461 132.99896335 20.27142802 138.7619888 21.18956876 144.52324098 C21.73616243 147.9556238 22.27570105 151.38876622 22.79799652 154.82493782 C23.37932284 158.64635144 23.99425237 162.46193295 24.61230469 166.27758789 C24.77977203 167.41162552 24.94723938 168.54566315 25.11978149 169.71406555 C26.0134013 175.76644111 26.0134013 175.76644111 29.58673096 180.51390076 C30.38310974 181.00431351 31.17948853 181.49472626 32 182 C33.09194645 185.82181259 33.5996213 187.88641759 31.6875 191.4375 C30 193 30 193 28 193 C28 207.85 28 222.7 28 238 C30.31 238 32.62 238 35 238 C35.63511169 248.33115022 34.88118979 255.6385753 30 265 C31.32 265 32.64 265 34 265 C34 266.65 34 268.3 34 270 C32.02 270 30.04 270 28 270 C28 295.74 28 321.48 28 348 C32.72732424 345.32186848 32.72732424 345.32186848 35.625 342.875 C38 341 38 341 41 340 C41.01458252 339.42032471 41.02916504 338.84064941 41.04418945 338.2434082 C41.11898528 335.59912447 41.21553898 332.95605998 41.3125 330.3125 C41.33505859 329.40048828 41.35761719 328.48847656 41.38085938 327.54882812 C41.59814769 322.11662037 41.96104757 318.03895243 46 314 C46.20439057 310.50643532 46.34618149 307.01978978 46.4296875 303.52148438 C46.58472536 299.79734569 46.80769985 297.3816189 48.51171875 294 C50.5014004 289.98930313 50.39520445 286.59928559 50.4375 282.1875 C51.38164796 254.29197403 64.05313969 231.19167852 83.43359375 211.53125 C92.88634798 202.71488809 103.70364446 195.71679132 114.67285156 188.96557617 C129.07364598 180.05581918 144.04025527 170.72587894 155.625 158.25 C157 157 157 157 159 157 C158.896875 155.948125 158.79375 154.89625 158.6875 153.8125 C159 150 159 150 161.3125 147.0625 C164 145 164 145 167 145 C167 131.8 167 118.6 167 105 C168.32 105 169.64 105 171 105 C171 118.2 171 131.4 171 145 C172.65 145.33 174.3 145.66 176 146 C178.3538918 148.89192422 179.80663084 151.25875154 180.75 154.875 C186.81598394 170.03995984 211.0336592 181.02110878 224.01025391 189.2565918 C253.27693056 207.85730081 276.71386442 229.3172903 285.6875 264.0625 C287.13731058 270.70882267 287.74237125 277.42459628 288.26635742 284.19750977 C288.33443604 285.02049561 288.40251465 285.84348145 288.47265625 286.69140625 C288.52687744 287.42560791 288.58109863 288.15980957 288.63696289 288.91625977 C288.90558705 291.0553887 288.90558705 291.0553887 290.01586914 293.01196289 C291.11270647 295.22767769 291.25237459 296.66193528 291.2734375 299.1171875 C291.304375 300.27541016 291.304375 300.27541016 291.3359375 301.45703125 C291.36185125 303.06109218 291.3801569 304.66529517 291.390625 306.26953125 C291.55303163 311.69210806 292.59013746 314.58956004 296 319 C296.94137255 321.82411765 297.11725382 323.52918032 297.09765625 326.44921875 C297.09443359 327.29677734 297.09121094 328.14433594 297.08789062 329.01757812 C297.07951172 329.89865234 297.07113281 330.77972656 297.0625 331.6875 C297.05573242 333.02651367 297.05573242 333.02651367 297.04882812 334.39257812 C297.03704983 336.59511987 297.02060164 338.79752599 297 341 C298.12148438 341.12761719 298.12148438 341.12761719 299.265625 341.2578125 C302.55642124 342.15102862 303.59822281 343.27572933 305.75 345.875 C306.34296875 346.57367188 306.9359375 347.27234375 307.546875 347.9921875 C309.86650574 351.19726869 310.12208786 353.832206 310.09765625 357.66796875 C310.09443359 358.56064453 310.09121094 359.45332031 310.08789062 360.37304688 C310.07951172 361.30181641 310.07113281 362.23058594 310.0625 363.1875 C310.05798828 364.12787109 310.05347656 365.06824219 310.04882812 366.03710938 C310.03704626 368.35813712 310.02059558 370.67903644 310 373 C310.76828125 373.11472656 311.5365625 373.22945313 312.328125 373.34765625 C315.99746949 374.24353422 317.54739638 376.20675698 320 379 C321.35439668 381.70879335 321.06501451 384.00933268 321 387 C320.34 387 319.68 387 319 387 C318.79238417 399.52182956 319.2999655 407.35210182 328 417 C331.26144665 421.30666909 331.4184779 425.13551791 331.35644531 430.35449219 C331.35848969 431.18266953 331.36053406 432.01084686 331.36264038 432.86412048 C331.36564018 435.59193245 331.34720021 438.31913525 331.328125 441.046875 C331.32506676 442.94305268 331.32319113 444.8392326 331.32244873 446.7354126 C331.31785123 450.70309079 331.30344263 454.67056538 331.28125 458.63818359 C331.2528909 463.73517121 331.24203023 468.83199905 331.2375679 473.92905807 C331.23342166 477.84083669 331.22361213 481.75258274 331.21169281 485.66434479 C331.20597989 487.54470813 331.20122459 489.42507463 331.19742584 491.30544281 C331.19058766 493.92471394 331.17696907 496.54385575 331.16113281 499.16308594 C331.16001495 499.94644821 331.15889709 500.72981049 331.15774536 501.53691101 C331.11469181 506.88530819 331.11469181 506.88530819 330 508 C328.08174138 508.09768372 326.15982545 508.12371314 324.23908138 508.12304783 C322.97958453 508.12503888 321.72008768 508.12702993 320.42242426 508.12908131 C319.0065458 508.12622771 317.59066752 508.12328211 316.17478943 508.12025452 C314.68487326 508.12069009 313.19495716 508.12156473 311.70504147 508.12284368 C307.59132298 508.12509143 303.47763028 508.12106356 299.36391509 508.11606562 C294.93512509 508.11176529 290.50633666 508.11320725 286.07754517 508.1139679 C278.39787384 508.1144934 270.71821099 508.11134387 263.03854179 508.10573006 C251.93489586 508.09761858 240.83125404 508.0950002 229.72760547 508.09374207 C211.71464156 508.09155099 193.70168216 508.0848894 175.6887207 508.07543945 C158.18611677 508.06626677 140.68351406 508.05918524 123.1809082 508.05493164 C122.10286552 508.05466892 121.02482284 508.05440619 119.9141122 508.05413551 C114.50613312 508.05283051 109.09815403 508.0515668 103.69017494 508.05032361 C58.79344683 508.03994926 13.89672365 508.02232944 -31 508 C-30.9968576 507.39299067 -30.99371519 506.78598133 -30.99047756 506.16057777 C-30.91672 491.30800711 -30.89352958 476.4559818 -30.92484188 461.60329628 C-30.93879858 454.42014902 -30.93639037 447.23774053 -30.89379883 440.0546875 C-30.85666657 433.78503147 -30.8519273 427.51627673 -30.88417059 421.24658048 C-30.90012408 417.93429599 -30.89632436 414.62405476 -30.86323357 411.31184769 C-30.72828156 396.72021955 -31.19226578 385.16997931 -38.98057556 372.54063416 C-41.88150532 367.83038272 -42.10609575 363.35638755 -41.625 357.9375 C-41.59277344 357.07318359 -41.56054688 356.20886719 -41.52734375 355.31835938 C-41.2499871 349.2499871 -41.2499871 349.2499871 -40 348 C-34.39 348 -28.78 348 -23 348 C-23 322.26 -23 296.52 -23 270 C-24.98 270 -26.96 270 -29 270 C-29 268.35 -29 266.7 -29 265 C-27.68 265 -26.36 265 -25 265 C-25.433125 264.21238281 -25.86625 263.42476563 -26.3125 262.61328125 C-30.42527249 254.56862209 -32.12304047 248.04118656 -31 239 C-30.67 238.67 -30.34 238.34 -30 238 C-27.69 238 -25.38 238 -23 238 C-23 223.15 -23 208.3 -23 193 C-24.32 192.34 -25.64 191.68 -27 191 C-28 190 -28 190 -28.3125 186.6875 C-28 183 -28 183 -26.125 180.5625 C-24 179 -24 179 -22 179 C-21.83210968 177.71899918 -21.66421936 176.43799835 -21.49124146 175.11817932 C-19.51228158 160.2122653 -17.20449333 145.37059048 -14.8046875 130.52734375 C-14.40760447 128.05972995 -14.01072737 125.59208301 -13.61404419 123.12440491 C-12.79035882 118.00381965 -11.96497667 112.88351211 -11.13818359 107.76342773 C-10.07877056 101.20260042 -9.02254415 94.64126716 -7.96742058 88.07974911 C-7.15156148 83.00707259 -6.33464254 77.93456727 -5.5173378 72.86212349 C-5.12721904 70.44083273 -4.73729176 68.01951111 -4.34756088 65.59815788 C-3.80545234 62.23186305 -3.26205913 58.86577822 -2.71826172 55.49975586 C-2.47825439 54.00764084 -2.47825439 54.00764084 -2.23339844 52.48538208 C-2.08490448 51.56791702 -1.93641052 50.65045197 -1.78341675 49.70518494 C-1.59153684 48.51606963 -1.59153684 48.51606963 -1.39578056 47.30293179 C-0.97567686 44.85847073 -0.49683655 42.42992471 0 40 C-0.639375 39.773125 -1.27875 39.54625 -1.9375 39.3125 C-4 38 -4 38 -4.9375 35.6875 C-5.01716152 32.26205445 -3.87591173 30.8138676 -2 28 C-1.03122943 25.96756452 -1.03122943 25.96756452 -1 24 C-2.37485532 22.45833358 -2.37485532 22.45833358 -4 21 C-5.17846027 18.28047629 -5.05677311 17.18778799 -4.1875 14.3125 C-3 12 -3 12 -1 11 C-0.5316735 8.41394668 -0.5316735 8.41394668 -0.375 5.4375 C-0.30023438 4.42558594 -0.22546875 3.41367188 -0.1484375 2.37109375 C-0.09945312 1.58863281 -0.05046875 0.80617187 0 0 Z " fill="#030605" transform="translate(111,2)"/>
<path d="M0 0 C96.36 0 192.72 0 292 0 C292.33 6.6 292.66 13.2 293 20 C297.15781693 26.09572695 297.15781693 26.09572695 301.51309204 31.94702148 C306.31154615 38.91042214 305.3551074 47.17725092 305.07421875 55.28125 C305.05798655 56.87332897 305.04680107 58.46546735 305.04064941 60.05761719 C304.98365844 65.87265708 304.8300862 71.68642914 304.6875 77.5 C304.3471875 97.0525 304.3471875 97.0525 304 117 C271 117 238 117 204 117 C202.02 108.09 202.02 108.09 200 99 C192.70054875 82.96983254 181.97466914 71.90858857 165.703125 65 C151.81748844 59.86311711 137.12165129 60.81653908 123.59765625 66.40625 C109.01314029 73.12051142 99.02801914 83.23385056 92.65625 98.14453125 C90.29991665 104.70018725 89.72392455 109.76075452 89 117 C55.67 117 22.34 117 -12 117 C-12.165 103.861875 -12.33 90.72375 -12.5 77.1875 C-12.57283203 73.05887451 -12.64566406 68.93024902 -12.72070312 64.67651367 C-12.75683594 59.58459473 -12.75683594 59.58459473 -12.7635498 57.19111633 C-12.77573197 55.54059021 -12.80365545 53.89012958 -12.84460449 52.24006653 C-13.11624585 40.70453199 -12.27527855 33.77077532 -4 25 C1.06274198 19.02921731 1.06274198 19.02921731 0 0 Z " fill="#D4D5CF" transform="translate(134,389)"/>
<path d="M0 0 C0.78914795 -0.01562988 1.5782959 -0.03125977 2.39135742 -0.04736328 C6.53418636 0.06589833 8.34580446 0.31251165 11.625 3.0234375 C12.3675 3.92320312 13.11 4.82296875 13.875 5.75 C23.58719513 14.80374122 34.71777673 21.67198424 45.86035156 28.81103516 C76.43989418 48.47921846 102.88528145 69.15608361 112.875 105.75 C113.09929687 106.5646875 113.32359375 107.379375 113.5546875 108.21875 C115.32103597 115.67128874 114.875 121.68859901 114.875 129.75 C39.305 129.75 -36.265 129.75 -114.125 129.75 C-114.125 116.99022011 -114.09301617 108.27552065 -110.125 96.75 C-109.774375 95.72519531 -109.42375 94.70039063 -109.0625 93.64453125 C-104.43122512 81.47135388 -96.63898217 70.51957955 -88.125 60.75 C-87.27615234 59.77546875 -87.27615234 59.77546875 -86.41015625 58.78125 C-75.90319203 47.56155954 -62.2095029 39.35152382 -49.33105469 31.16064453 C-29.43766743 19.34384881 -29.43766743 19.34384881 -12.9375 3.625 C-9.37348159 -0.20201213 -4.92622068 0.07116139 0 0 Z " fill="#115C38" transform="translate(280.125,161.25)"/>
<path d="M0 0 C12.75568222 8.72072152 22.08860502 20.57098089 25.3125 35.875 C25.3125 38.845 25.3125 41.815 25.3125 44.875 C-10.3275 44.875 -45.9675 44.875 -82.6875 44.875 C-82.6875 30.80575876 -77.04758865 18.15983074 -67.3125 8 C-48.69095175 -9.33838274 -22.25601027 -13.09359158 0 0 Z " fill="#6C9CAC" transform="translate(308.6875,461.125)"/>
<path d="M0 0 C15.51 0 31.02 0 47 0 C47 20.29207913 47 20.29207913 41.58081055 25.90625 C34.48396424 34.70507174 34.47621684 42.54672452 34.70703125 53.5 C34.70510391 55.31560378 34.69831346 57.13120819 34.68693542 58.94677734 C34.67012032 63.6692306 34.71825398 68.38874324 34.78112793 73.11071777 C34.84296837 78.80605391 34.82202037 84.50164625 34.81536102 90.19723511 C34.8143661 98.79997037 34.91682109 107.39581899 35 116 C23.45 116 11.9 116 0 116 C0 77.72 0 39.44 0 0 Z " fill="#B4B89B" transform="translate(84,390)"/>
<path d="M0 0 C0.33 0 0.66 0 1 0 C1.94308566 5.63335988 2.88499728 11.2669145 3.82592773 16.90063477 C4.14463353 18.80791226 4.46363291 20.71514072 4.78295898 22.62231445 C10.03359401 53.98555641 10.03359401 53.98555641 11.93359375 67.5859375 C13.32429352 77.47759524 14.93356864 87.33594229 16.51391602 97.19873047 C17.0667714 100.6516777 17.61647685 104.10511731 18.16601562 107.55859375 C18.51803977 109.76044695 18.87024662 111.96227096 19.22265625 114.1640625 C19.46798851 115.70775009 19.46798851 115.70775009 19.71827698 117.28262329 C19.87191208 118.23817108 20.02554718 119.19371887 20.18383789 120.17822266 C20.31770401 121.01535797 20.45157013 121.85249329 20.5894928 122.71499634 C20.72496017 123.46904755 20.86042755 124.22309875 21 125 C21.12898178 125.73366791 21.25796356 126.46733582 21.39085388 127.22323608 C21.5918721 127.80956818 21.79289032 128.39590027 22 129 C24.49034386 130.29660434 24.49034386 130.29660434 27 131 C26.125 135.875 26.125 135.875 25 137 C23.47613769 137.10358779 21.94753014 137.13851138 20.42016602 137.14526367 C19.44568008 137.15164352 18.47119415 137.15802338 17.46717834 137.16459656 C15.87660866 137.16626579 15.87660866 137.16626579 14.25390625 137.16796875 C13.17245834 137.17129715 12.09101044 137.17462555 10.97679138 137.17805481 C8.68432034 137.18312877 6.39184188 137.18546299 4.09936523 137.18530273 C0.58109433 137.18748845 -2.93686281 137.20563728 -6.45507812 137.22460938 C-8.67708225 137.22754328 -10.89908788 137.22952809 -13.12109375 137.23046875 C-14.17944931 137.23765427 -15.23780487 137.24483978 -16.32823181 137.25224304 C-17.3058699 137.24916641 -18.283508 137.24608978 -19.29077148 137.24291992 C-20.58530495 137.24505745 -20.58530495 137.24505745 -21.9059906 137.24723816 C-24 137 -24 137 -26 135 C-25.625 132.375 -25.625 132.375 -25 130 C-23.68 129.67 -22.36 129.34 -21 129 C-20.87995605 128.24659332 -20.75991211 127.49318665 -20.63623047 126.71694946 C-20.04917801 123.03264993 -19.46209588 119.34835512 -18.875 115.6640625 C-18.76476942 114.97230612 -18.65453884 114.28054974 -18.54096794 113.56783104 C-17.19202716 105.10266535 -15.84265805 96.63756815 -14.49243164 88.17260742 C-14.36732114 87.38823398 -14.24221064 86.60386053 -14.11330891 85.79571819 C-13.07951247 79.3144046 -13.07951247 79.3144046 -12.58949471 76.24252129 C-11.1006874 66.90897631 -9.61385431 57.57512442 -8.13119507 48.24060059 C-7.40276844 43.65597356 -6.67285909 39.07158341 -5.94262695 34.48724365 C-5.60858676 32.38778731 -5.27524182 30.28822022 -4.94262695 28.1885376 C-4.48309414 25.28816061 -4.02112158 22.3881819 -3.55859375 19.48828125 C-3.42883652 18.66518967 -3.29907928 17.84209808 -3.16539001 16.99406433 C-2.25339455 11.29853186 -1.16607807 5.64879071 0 0 Z " fill="#0C4C2C" transform="translate(113,55)"/>
<path d="M0 0 C14.52 0 29.04 0 44 0 C44 25.74 44 51.48 44 78 C39.71 78 35.42 78 31 78 C30.97421875 76.60265625 30.9484375 75.2053125 30.921875 73.765625 C30.86559216 71.92705217 30.80824486 70.08851172 30.75 68.25 C30.73582031 67.32960938 30.72164062 66.40921875 30.70703125 65.4609375 C30.55474749 60.09617229 30.55474749 60.09617229 28.203125 55.39453125 C25.90277812 53.93846062 24.69851527 53.43222946 22 53.4375 C21.01 53.40462891 21.01 53.40462891 20 53.37109375 C16.68480118 54.41356838 15.73808617 56.02258283 14 59 C13.39121594 62.26857327 13.30444893 65.4935903 13.25 68.8125 C13.22035156 69.69615234 13.19070312 70.57980469 13.16015625 71.49023438 C13.0897961 73.65967218 13.04259393 75.82983948 13 78 C8.71 78 4.42 78 0 78 C0 52.26 0 26.52 0 0 Z " fill="#D4D5CF" transform="translate(91,272)"/>
<path d="M0 0 C14.52 0 29.04 0 44 0 C44 14.52 44 29.04 44 44 C29.48 44 14.96 44 0 44 C0 29.48 0 14.96 0 0 Z " fill="#D5D6D0" transform="translate(91,196)"/>
<path d="M0 0 C0.495 0.99 0.495 0.99 1 2 C-0.37890625 4.51953125 -0.37890625 4.51953125 -2.5625 7.8125 C-3.15683838 8.71935547 -3.15683838 8.71935547 -3.76318359 9.64453125 C-6.2942578 13.49122978 -8.88136447 17.2991759 -11.47265625 21.10546875 C-25.90477689 42.36170451 -35.45582916 63.38270775 -39 89 C-39.19207031 90.25039063 -39.38414062 91.50078125 -39.58203125 92.7890625 C-40.95478027 102.17116013 -41.55990142 111.53788044 -42 121 C-46.95 121 -51.9 121 -57 121 C-57.7613766 86.82265027 -48.9175714 56.05752336 -26 30 C-24.25606308 28.18008242 -22.47684308 26.41131342 -20.66796875 24.65625 C-13.25393726 17.29430772 -5.78725728 8.68088592 0 0 Z " fill="#125F3A" transform="translate(269,170)"/>
<path d="M0 0 C0 3.60146228 -0.54692034 3.93957691 -2.96484375 6.44140625 C-3.59567871 7.10229248 -4.22651367 7.76317871 -4.87646484 8.4440918 C-5.55660645 9.1431665 -6.23674805 9.84224121 -6.9375 10.5625 C-8.32469706 12.01777338 -9.71141766 13.47350109 -11.09765625 14.9296875 C-12.39830322 16.28658706 -13.69907112 17.64337072 -15 19 C-34.41840051 39.40769311 -45.35783063 63.3473652 -50 91 C-50.17789063 91.92554688 -50.35578125 92.85109375 -50.5390625 93.8046875 C-51.16621725 98.15225179 -51.36107215 102.48981657 -51.5625 106.875 C-51.60568359 107.75414062 -51.64886719 108.63328125 -51.69335938 109.5390625 C-51.79869339 111.69255797 -51.89977649 113.84626064 -52 116 C-57.28 116 -62.56 116 -68 116 C-69.11943844 83.90943146 -56.9140007 54.80736904 -35.30859375 31.3671875 C-29.70039238 25.61664599 -23.62142327 20.47605136 -17.375 15.4375 C-13.23003516 12.08986928 -9.42779213 8.58295243 -5.75390625 4.7265625 C-3.94952513 2.95031204 -2.05609505 1.47315821 0 0 Z " fill="#125F3A" transform="translate(262,175)"/>
<path d="M0 0 C0.33 0 0.66 0 1 0 C1 40.59 1 81.18 1 123 C-3.95 123 -8.9 123 -14 123 C-14.62108119 84.00990328 -10.60570044 45.93545331 -1.69262695 8.01318359 C-1.08028965 5.34928969 -0.51998948 2.68323303 0 0 Z " fill="#125F3A" transform="translate(278,168)"/>
<path d="M0 0 C0.68300171 0.00402832 1.36600342 0.00805664 2.06970215 0.01220703 C4.60273391 0.03301684 7.13538043 0.0888624 9.66796875 0.140625 C15.33984375 0.223125 21.01171875 0.305625 26.85546875 0.390625 C26.85546875 13.590625 26.85546875 26.790625 26.85546875 40.390625 C23.55546875 40.390625 20.25546875 40.390625 16.85546875 40.390625 C16.8296875 38.86050781 16.80390625 37.33039063 16.77734375 35.75390625 C16.72105662 33.73695088 16.66370943 31.7200249 16.60546875 29.703125 C16.59128906 28.69572266 16.57710937 27.68832031 16.5625 26.65039062 C16.37719146 20.64456171 16.37719146 20.64456171 13.93359375 15.24609375 C10.20399504 11.9160949 7.18526864 12.05648561 2.3359375 12.10546875 C-1.17650244 12.50926106 -2.82255243 13.77839883 -5.14453125 16.390625 C-6.87286931 19.30983481 -7.4217339 21.56162378 -7.55859375 24.9375 C-7.5942041 25.69901367 -7.62981445 26.46052734 -7.66650391 27.24511719 C-7.70050293 28.20063477 -7.73450195 29.15615234 -7.76953125 30.140625 C-7.89328125 33.193125 -8.01703125 36.245625 -8.14453125 39.390625 C-14.41453125 39.390625 -20.68453125 39.390625 -27.14453125 39.390625 C-26.14453125 35.390625 -26.14453125 35.390625 -23.14453125 33.390625 C-19.95703125 33.265625 -19.95703125 33.265625 -17.14453125 33.390625 C-17.16547852 32.72530762 -17.18642578 32.05999023 -17.20800781 31.37451172 C-17.29153734 28.33837198 -17.34330728 25.30247457 -17.39453125 22.265625 C-17.42804688 21.21890625 -17.4615625 20.1721875 -17.49609375 19.09375 C-17.57317612 13.00424239 -17.44823449 9.08956629 -13.14453125 4.390625 C-9.00201214 0.25237018 -5.63120995 -0.15782922 0 0 Z " fill="#23774E" transform="translate(160.14453125,345.609375)"/>
<path d="M0 0 C5.341875 -0.061875 10.68375 -0.12375 16.1875 -0.1875 C17.86481201 -0.21481201 19.54212402 -0.24212402 21.27026367 -0.27026367 C22.61115806 -0.27903182 23.95206047 -0.28667498 25.29296875 -0.29296875 C26.32339294 -0.3159906 26.32339294 -0.3159906 27.37463379 -0.33947754 C33.41503757 -0.34274911 36.35155929 1.54041884 40.76171875 5.4453125 C44.3043592 9.92942178 43.78220014 15.40755827 43.8125 20.875 C43.83763672 21.94492187 43.86277344 23.01484375 43.88867188 24.1171875 C43.94733201 26.74516165 43.9837667 29.37147825 44 32 C45.11375 32.28875 46.2275 32.5775 47.375 32.875 C51 34 51 34 53 36 C53 36.99 53 37.98 53 39 C46.73 39 40.46 39 34 39 C33.98582031 37.62585938 33.97164063 36.25171875 33.95703125 34.8359375 C33.91011513 33.01559206 33.86186783 31.1952806 33.8125 29.375 C33.80669922 28.47136719 33.80089844 27.56773437 33.79492188 26.63671875 C33.58839536 20.34913369 32.62597328 17.33816614 28 13 C24.28546768 11.14273384 20.04420575 11.41498911 16 12 C13.17575712 14.19022918 11.58491397 15.83017207 10 19 C9.84876169 20.5195764 9.75118307 22.04472502 9.68359375 23.5703125 C9.64169922 24.46621094 9.59980469 25.36210937 9.55664062 26.28515625 C9.51732422 27.22230469 9.47800781 28.15945313 9.4375 29.125 C9.39431641 30.06988281 9.35113281 31.01476562 9.30664062 31.98828125 C9.2004106 34.32534172 9.09968729 36.6626513 9 39 C6.03 39 3.06 39 0 39 C0 26.13 0 13.26 0 0 Z " fill="#247B50" transform="translate(374,346)"/>
<path d="M0 0 C13.86 0 27.72 0 42 0 C42 12.87 42 25.74 42 39 C39.36 39 36.72 39 34 39 C33.97421875 37.69804687 33.9484375 36.39609375 33.921875 35.0546875 C33.86557299 33.32809244 33.80822613 31.60153124 33.75 29.875 C33.73582031 29.0190625 33.72164063 28.163125 33.70703125 27.28125 C33.49406683 21.74417516 32.72577312 18.36486559 29 14 C24.77005384 11.1800359 20.96779552 11.20768812 16 12 C12.65374976 14.52676039 11.32022153 16.03933542 10 20 C9.8535286 21.55266653 9.75305926 23.10995662 9.68359375 24.66796875 C9.64169922 25.56064453 9.59980469 26.45332031 9.55664062 27.37304688 C9.49766602 28.76620117 9.49766602 28.76620117 9.4375 30.1875 C9.39431641 31.12787109 9.35113281 32.06824219 9.30664062 33.03710938 C9.20061457 35.35790188 9.09980806 37.67893177 9 40 C6.03 40 3.06 40 0 40 C0 26.8 0 13.6 0 0 Z " fill="#247A4F" transform="translate(282,346)"/>
<path d="M0 0 C13.86 0 27.72 0 42 0 C42 12.87 42 25.74 42 39 C39.36 39 36.72 39 34 39 C33.97421875 37.69804687 33.9484375 36.39609375 33.921875 35.0546875 C33.86557299 33.32809244 33.80822613 31.60153124 33.75 29.875 C33.73582031 29.0190625 33.72164063 28.163125 33.70703125 27.28125 C33.49406683 21.74417516 32.72577312 18.36486559 29 14 C24.7741215 11.18274767 20.96375312 11.20041616 16 12 C13.17575712 14.19022918 11.58491397 15.83017207 10 19 C9.84824451 20.59262066 9.75099675 22.19064856 9.68359375 23.7890625 C9.62075195 25.20058594 9.62075195 25.20058594 9.55664062 26.640625 C9.49766602 28.11789062 9.49766602 28.11789062 9.4375 29.625 C9.39431641 30.61757813 9.35113281 31.61015625 9.30664062 32.6328125 C9.20038931 35.08839838 9.09835036 37.54408703 9 40 C6.03 40 3.06 40 0 40 C0 26.8 0 13.6 0 0 Z " fill="#247A50" transform="translate(328,346)"/>
<path d="M0 0 C13.86 0 27.72 0 42 0 C42 12.87 42 25.74 42 39 C39.36 39 36.72 39 34 39 C33.97421875 37.69804687 33.9484375 36.39609375 33.921875 35.0546875 C33.86557299 33.32809244 33.80822613 31.60153124 33.75 29.875 C33.73582031 29.0190625 33.72164063 28.163125 33.70703125 27.28125 C33.49406683 21.74417516 32.72577312 18.36486559 29 14 C24.76447144 11.17631429 20.97522686 11.33346243 16 12 C13.06576805 13.79646854 11.52794645 14.9441071 10 18 C9.84777027 19.66565749 9.75082785 21.33656496 9.68359375 23.0078125 C9.64169922 23.99394531 9.59980469 24.98007812 9.55664062 25.99609375 C9.51732422 27.02863281 9.47800781 28.06117188 9.4375 29.125 C9.39431641 30.16527344 9.35113281 31.20554687 9.30664062 32.27734375 C9.2003712 34.85142528 9.09833417 37.42560508 9 40 C6.03 40 3.06 40 0 40 C0 26.8 0 13.6 0 0 Z " fill="#247A4F" transform="translate(236,346)"/>
<path d="M0 0 C13.86 0 27.72 0 42 0 C42 12.87 42 25.74 42 39 C39.36 39 36.72 39 34 39 C33.97421875 37.69804687 33.9484375 36.39609375 33.921875 35.0546875 C33.86557299 33.32809244 33.80822613 31.60153124 33.75 29.875 C33.73582031 29.0190625 33.72164062 28.163125 33.70703125 27.28125 C33.49406683 21.74417516 32.72577312 18.36486559 29 14 C24.76447144 11.17631429 20.97522686 11.33346243 16 12 C13.06576805 13.79646854 11.52794645 14.9441071 10 18 C9.84777027 19.66565749 9.75082785 21.33656496 9.68359375 23.0078125 C9.64169922 23.99394531 9.59980469 24.98007812 9.55664062 25.99609375 C9.51732422 27.02863281 9.47800781 28.06117188 9.4375 29.125 C9.39431641 30.16527344 9.35113281 31.20554687 9.30664062 32.27734375 C9.2003712 34.85142528 9.09833417 37.42560508 9 40 C6.03 40 3.06 40 0 40 C0 26.8 0 13.6 0 0 Z " fill="#247A4F" transform="translate(190,346)"/>
<path d="M0 0 C21.78 0 43.56 0 66 0 C65.67 4.29 65.34 8.58 65 13 C43.55 13 22.1 13 0 13 C0 8.71 0 4.42 0 0 Z " fill="#B5B99C" transform="translate(74,354)"/>
<path d="M0 0 C21.45 0 42.9 0 65 0 C65 1.65 65 3.3 65 5 C63.63875 5.37125 63.63875 5.37125 62.25 5.75 C58.83148523 7.06481337 57.25779466 8.15685117 55 11 C54.67 12.32 54.34 13.64 54 15 C38.49 15 22.98 15 7 15 C4.69 10.05 2.38 5.1 0 0 Z " fill="#B2B69A" transform="translate(75,371)"/>
<path d="M0 0 C12.87 0 25.74 0 39 0 C39 8.25 39 16.5 39 25 C35.04 25 31.08 25 27 25 C26.97421875 23.95199219 26.9484375 22.90398437 26.921875 21.82421875 C26.86559142 20.44527098 26.80824412 19.06636635 26.75 17.6875 C26.73582031 16.99720703 26.72164062 16.30691406 26.70703125 15.59570312 C26.55012545 12.34775302 26.41284737 10.45182867 24.1796875 8.0078125 C20.8812341 6.48272114 18.45684225 7.16779724 15 8 C12.15385976 10.84614024 12.54420924 13.80369142 12.375 17.625 C12.31699219 18.68460937 12.31699219 18.68460937 12.2578125 19.765625 C12.16352276 21.50998524 12.08067109 23.25495691 12 25 C8.04 25 4.08 25 0 25 C0 16.75 0 8.5 0 0 Z " fill="#115937" transform="translate(198,318)"/>
<path d="M0 0 C12.87 0 25.74 0 39 0 C39 7.92 39 15.84 39 24 C35.04 24 31.08 24 27 24 C26.97421875 23.10796875 26.9484375 22.2159375 26.921875 21.296875 C26.86515625 20.12640625 26.8084375 18.9559375 26.75 17.75 C26.70359375 16.58984375 26.6571875 15.4296875 26.609375 14.234375 C25.90403983 10.49067294 25.01726616 9.25882767 22 7 C18.94446877 6.56349554 17.00795162 6.35683087 14.359375 8.046875 C12.28774959 11.02334829 12.42720941 14.17739194 12.3125 17.6875 C12.27833984 18.38939453 12.24417969 19.09128906 12.20898438 19.81445312 C12.12670053 21.54241387 12.0616676 23.27118072 12 25 C8.04 25 4.08 25 0 25 C0 16.75 0 8.5 0 0 Z " fill="#115A37" transform="translate(240,318)"/>
<path d="M0 0 C4.91340463 -0.13790221 9.82008698 -0.25725717 14.73388672 -0.32958984 C16.40436561 -0.35973821 18.0746865 -0.40066552 19.74462891 -0.45263672 C22.14785705 -0.52554846 24.54899164 -0.55947188 26.953125 -0.5859375 C27.69806213 -0.61690521 28.44299927 -0.64787292 29.21051025 -0.67977905 C31.33300781 -0.68115234 31.33300781 -0.68115234 35 0 C38.0020423 3.33560255 39.52124245 6.01713559 39.390625 10.5234375 C39.37773437 11.31621094 39.36484375 12.10898437 39.3515625 12.92578125 C39.31804687 13.73402344 39.28453125 14.54226563 39.25 15.375 C39.23195313 16.20644531 39.21390625 17.03789062 39.1953125 17.89453125 C39.14851573 19.93019074 39.07678298 21.9652509 39 24 C35.04 24 31.08 24 27 24 C26.97421875 23.02417969 26.9484375 22.04835938 26.921875 21.04296875 C26.86515625 19.77066406 26.8084375 18.49835938 26.75 17.1875 C26.70359375 15.92292969 26.6571875 14.65835937 26.609375 13.35546875 C26.31473251 9.97078807 26.31473251 9.97078807 24.14453125 8.07421875 C21.23128722 6.61494351 19.21429576 6.58966437 16 7 C14.21917241 8.02241339 14.21917241 8.02241339 13 10 C12.41781668 13.4223884 12.41781668 13.4223884 12.3125 17.1875 C12.24675781 18.45980469 12.18101562 19.73210937 12.11328125 21.04296875 C12.07589844 22.01878906 12.03851563 22.99460937 12 24 C8.04 24 4.08 24 0 24 C0 16.08 0 8.16 0 0 Z " fill="#125C38" transform="translate(365,318)"/>
<path d="M0 0 C12.54 0 25.08 0 38 0 C38 7.92 38 15.84 38 24 C34.37 24 30.74 24 27 24 C26.98582031 23.19175781 26.97164063 22.38351562 26.95703125 21.55078125 C26.68354194 14.75431783 26.68354194 14.75431783 23.875 8.6875 C21.02558344 6.68889757 21.02558344 6.68889757 17.3125 7 C13.74460887 7.69383331 13.74460887 7.69383331 12 11 C11.5396236 14.19806665 11.5396236 14.19806665 11.375 17.6875 C11.30023438 18.86699219 11.22546875 20.04648437 11.1484375 21.26171875 C11.09945313 22.16535156 11.05046875 23.06898438 11 24 C7.37 24 3.74 24 0 24 C0 16.08 0 8.16 0 0 Z " fill="#125E39" transform="translate(324,318)"/>
<path d="M0 0 C18.15 0 36.3 0 55 0 C52 9 52 9 50 13 C35.15 13 20.3 13 5 13 C0 2 0 2 0 0 Z " fill="#B3B69A" transform="translate(86,255)"/>
<path d="M0 0 C12.54 0 25.08 0 38 0 C38 7.92 38 15.84 38 24 C34.37 24 30.74 24 27 24 C26.92652344 22.64455078 26.92652344 22.64455078 26.8515625 21.26171875 C26.77679688 20.08222656 26.70203125 18.90273438 26.625 17.6875 C26.55539062 16.51574219 26.48578125 15.34398437 26.4140625 14.13671875 C26.21386253 10.84300113 26.21386253 10.84300113 24 8 C19.9906885 6.93551399 19.9906885 6.93551399 16 7 C12.90852659 9.20117277 12.09819343 10.47881951 11.390625 14.234375 C11.32101562 15.97460938 11.32101562 15.97460938 11.25 17.75 C11.19328125 18.92046875 11.1365625 20.0909375 11.078125 21.296875 C11.05234375 22.18890625 11.0265625 23.0809375 11 24 C7.37 24 3.74 24 0 24 C0 16.08 0 8.16 0 0 Z " fill="#125E3A" transform="translate(282,318)"/>
<path d="M0 0 C4.31899433 2.37046047 7.08920056 5.47069763 9 10 C9.74183387 15.51076586 8.55521268 18.82145731 5.48046875 23.265625 C2.80395732 26.40116874 0.08853541 27.6693501 -3.94921875 28.30859375 C-9.07536939 28.63080893 -11.99243534 27.35517041 -16 24 C-18.87565761 20.72769996 -19.89168611 18.1264645 -20.3125 13.75 C-19.85629548 8.27554573 -18.01221992 4.8902672 -13.9375 1.0625 C-9.26645992 -0.62702514 -4.89113032 -0.87466565 0 0 Z " fill="#BDBDBB" transform="translate(365,449)"/>
<path d="M0 0 C4.31899433 2.37046047 7.08920056 5.47069763 9 10 C9.74183387 15.51076586 8.55521268 18.82145731 5.48046875 23.265625 C2.80395732 26.40116874 0.08853541 27.6693501 -3.94921875 28.30859375 C-9.07536939 28.63080893 -11.99243534 27.35517041 -16 24 C-18.87565761 20.72769996 -19.89168611 18.1264645 -20.3125 13.75 C-19.85629548 8.27554573 -18.01221992 4.8902672 -13.9375 1.0625 C-9.26645992 -0.62702514 -4.89113032 -0.87466565 0 0 Z " fill="#BDBDBB" transform="translate(407,449)"/>
<path d="M0 0 C1.12350861 0.00848969 1.12350861 0.00848969 2.26971436 0.01715088 C4.654427 0.03948443 7.03761908 0.08967114 9.421875 0.140625 C11.04164491 0.16069409 12.66143846 0.17894415 14.28125 0.1953125 C18.24584406 0.23593334 22.20716443 0.3142173 26.171875 0.390625 C26.171875 8.310625 26.171875 16.230625 26.171875 24.390625 C22.541875 24.390625 18.911875 24.390625 15.171875 24.390625 C15.11128906 23.57078125 15.05070312 22.7509375 14.98828125 21.90625 C14.86259766 20.28976562 14.86259766 20.28976562 14.734375 18.640625 C14.65316406 17.57328125 14.57195312 16.5059375 14.48828125 15.40625 C14.23096727 12.95382538 13.85375282 10.75141209 13.171875 8.390625 C11.76033401 8.11314258 10.34207701 7.86968984 8.921875 7.640625 C8.13296875 7.50140625 7.3440625 7.3621875 6.53125 7.21875 C4.04036981 7.1989054 4.04036981 7.1989054 1.921875 8.953125 C-0.34107948 12.10509732 -0.42411325 14.29033115 -0.578125 18.140625 C-0.63484375 19.31109375 -0.6915625 20.4815625 -0.75 21.6875 C-0.77578125 22.57953125 -0.8015625 23.4715625 -0.828125 24.390625 C-4.458125 24.390625 -8.088125 24.390625 -11.828125 24.390625 C-11.93608806 21.1397372 -12.01541795 17.89243321 -12.078125 14.640625 C-12.11164063 13.72023438 -12.14515625 12.79984375 -12.1796875 11.8515625 C-12.19257813 10.96210938 -12.20546875 10.07265625 -12.21875 9.15625 C-12.23969727 8.33930664 -12.26064453 7.52236328 -12.28222656 6.68066406 C-10.95719788 -0.00146984 -5.80930875 -0.16586929 0 0 Z " fill="#125E3A" transform="translate(168.828125,317.609375)"/>
<path d="M0 0 C3.75835253 2.42204941 6.18495565 4.48714731 7.3828125 8.92578125 C8.1953797 14.06915871 7.88205337 17.41280683 4.8125 21.8125 C-0.02384801 26.17700918 -3.15474745 27.27691934 -9.57421875 27.23046875 C-13.87978003 26.54183638 -16.50215822 24.13866197 -19.1875 20.8125 C-21.48920224 16.93513582 -21.88752557 13.24314962 -21.1875 8.8125 C-16.63071419 0.18715543 -9.5439639 -3.55559439 0 0 Z " fill="#BCBCBA" transform="translate(387.1875,419.1875)"/>
<path d="M0 0 C3.93244436 2.04953668 6.40422343 4.13204365 7.96875 8.2734375 C8.71753726 13.96843917 8.221472 18.3943545 4.96875 23.2734375 C0.77591556 27.07319371 -3.26779937 27.63095141 -8.74609375 27.55078125 C-12.36869393 27.11111525 -14.35881608 25.69135391 -17.03125 23.2734375 C-20.32924116 18.54631684 -20.93504228 13.87694966 -20.03125 8.2734375 C-15.90667187 0.02428124 -8.79129945 -3.14458019 0 0 Z " fill="#BBBBB9" transform="translate(186.03125,418.7265625)"/>
<path d="M0 0 C4.43041256 2.13609177 7.16159481 4.40398702 9 9 C9.715328 13.76885333 9.48847963 17.05793214 7.25 21.375 C3.46952757 25.78555117 0.56604986 27.75791982 -5.3125 28.3125 C-10.38517063 27.88261266 -13.04686239 25.68373932 -16.8125 22.4375 C-19.64023489 19.0144525 -19.38626305 14.7305375 -19.35546875 10.51171875 C-18.77468791 6.40795961 -17.00085633 4.79149426 -14 2 C-9.52981291 -0.98012473 -5.24104518 -0.60733142 0 0 Z " fill="#BBBBBA" transform="translate(164,449)"/>
<path d="M0 0 C4.43041256 2.13609177 7.16159481 4.40398702 9 9 C9.715328 13.76885333 9.48847963 17.05793214 7.25 21.375 C3.46952757 25.78555117 0.56604986 27.75791982 -5.3125 28.3125 C-10.38517063 27.88261266 -13.04686239 25.68373932 -16.8125 22.4375 C-19.50645567 19.17639576 -19.33089334 15.30348637 -19.28515625 11.28515625 C-18.74463564 6.95358701 -16.33529651 4.21101567 -13.1953125 1.36328125 C-9.13565302 -1.15775284 -4.60728465 -0.60095017 0 0 Z " fill="#BBBBB9" transform="translate(206,449)"/>
<path d="M0 0 C15.51 0 31.02 0 47 0 C47 5.94 47 11.88 47 18 C46.67 18 46.34 18 46 18 C46 16.02 46 14.04 46 12 C34.45 12 22.9 12 11 12 C11 14.97 11 17.94 11 21 C9.68 21 8.36 21 7 21 C7 18.03 7 15.06 7 12 C4.69 12 2.38 12 0 12 C0 8.04 0 4.08 0 0 Z " fill="#9EA278" transform="translate(84,390)"/>
<path d="M0 0 C14.52 0 29.04 0 44 0 C44 3.3 44 6.6 44 10 C29.81 10 15.62 10 1 10 C1 32.44 1 54.88 1 78 C0.67 78 0.34 78 0 78 C0 52.26 0 26.52 0 0 Z " fill="#B2B2B0" transform="translate(91,272)"/>
<path d="M0 0 C0.33 0 0.66 0 1 0 C1.13565718 17.12941014 0.78557201 34.23289285 0.25537109 51.35253906 C0.16729052 54.20431078 0.08407289 57.05615729 0.00537109 59.90820312 C-0.44858755 76.33358557 -1.11872618 92.66407997 -3 109 C-6.3 109 -9.6 109 -13 109 C-12.74438677 106.6568787 -12.40729228 104.32156597 -12 102 C-11.01 101.505 -11.01 101.505 -10 101 C-9.43167609 98.24621507 -9.43167609 98.24621507 -9.140625 94.8046875 C-9.07089478 94.13318665 -9.00116455 93.46168579 -8.92932129 92.76983643 C-8.69355138 90.47240113 -8.47177197 88.17382592 -8.25 85.875 C-8.08559368 84.24065888 -7.92053412 82.60638337 -7.75488281 80.97216797 C-7.15301982 74.98306581 -6.57623803 68.99161365 -6 63 C-5.8151001 61.08320435 -5.8151001 61.08320435 -5.62646484 59.12768555 C-3.72548992 39.42086031 -1.85361406 19.71133534 0 0 Z " fill="#125E3A" transform="translate(110,82)"/>
<path d="M0 0 C14.52 0 29.04 0 44 0 C44 3.3 44 6.6 44 10 C29.81 10 15.62 10 1 10 C1 21.22 1 32.44 1 44 C0.67 44 0.34 44 0 44 C0 29.48 0 14.96 0 0 Z " fill="#B7B7B6" transform="translate(91,196)"/>
<path d="M0 0 C0.33 0 0.66 0 1 0 C2.59081188 13.66742912 3.91730946 27.35433631 5.17724609 41.0559082 C5.49727935 44.53294121 5.82071894 48.00964526 6.14453125 51.48632812 C7.54918297 66.64861128 8.8249742 81.81822321 10 97 C10.99 97 11.98 97 13 97 C13.38133299 98.9914056 13.71325582 100.99279077 14 103 C13 104 13 104 10.93359375 104.09765625 C7.46679688 104.04882812 7.46679688 104.04882812 4 104 C2.46815927 97.34358197 1.68932835 91.03008165 1.62109375 84.20703125 C1.6044165 83.30667145 1.58773926 82.40631165 1.57055664 81.47866821 C1.51830548 78.59001896 1.47796257 75.70133593 1.4375 72.8125 C1.368753 68.83064949 1.29382119 64.84892315 1.21875 60.8671875 C1.2013829 59.90346725 1.18401581 58.93974701 1.16612244 57.94682312 C1.03783817 51.10330408 0.79792904 44.2729606 0.4375 37.4375 C-0.20410098 24.96458541 -0.09374692 12.48564764 0 0 Z " fill="#125E3A" transform="translate(116,87)"/>
<path d="M0 0 C0.33 0 0.66 0 1 0 C1.02061493 0.71741364 1.04122986 1.43482727 1.06246948 2.17398071 C1.32648909 11.3245271 1.59791906 20.474841 1.875 29.625 C1.89704247 30.35364635 1.91908493 31.08229271 1.94179535 31.83301926 C2.54195906 51.60705549 3.23333578 71.36685027 4.39013672 91.11767578 C4.43120544 91.82235489 4.47227417 92.527034 4.5145874 93.25306702 C4.62252465 95.07979486 4.73509092 96.90624768 4.84814453 98.73266602 C5.0074227 102.15970738 5.02557241 105.56976056 5 109 C2.03 109 -0.94 109 -4 109 C-3.88010943 103.57793954 -3.75579128 98.15600345 -3.62768555 92.73413086 C-3.5848551 90.89659251 -3.54315386 89.05902743 -3.50268555 87.22143555 C-3.12263115 70.02514701 -3.12263115 70.02514701 -2.53125 61.9375 C-1.65928662 49.99787069 -1.36211972 38.02457715 -0.9375 26.0625 C-0.84591083 23.52928936 -0.75411564 20.99608615 -0.66210938 18.46289062 C-0.43903062 12.30867752 -0.21849661 6.1543774 0 0 Z " fill="#125F3A" transform="translate(113,82)"/>
<path d="M0 0 C2.75329021 1.79562405 4.52627461 3.05254922 6 6 C6.08342159 7.44848582 6.10732861 8.90070869 6.09765625 10.3515625 C6.09443359 11.20234375 6.09121094 12.053125 6.08789062 12.9296875 C6.07951172 13.81914062 6.07113281 14.70859375 6.0625 15.625 C6.05798828 16.5221875 6.05347656 17.419375 6.04882812 18.34375 C6.03702611 20.56252831 6.01909039 22.78127243 6 25 C0.06 25 -5.88 25 -12 25 C-12.13523325 21.76942783 -12.23421546 18.5445331 -12.3125 15.3125 C-12.35439453 14.40048828 -12.39628906 13.48847656 -12.43945312 12.54882812 C-12.52384969 7.90701686 -12.53354879 5.72106084 -9.69921875 1.890625 C-6.152199 -0.59382878 -4.24869399 -0.68282582 0 0 Z " fill="#0A4829" transform="translate(168,360)"/>
<path d="M0 0 C3.34265205 1.20706879 3.94704566 1.92056849 6 5 C6.22705078 7.17651367 6.22705078 7.17651367 6.1953125 9.66796875 C6.18886719 10.56064453 6.18242187 11.45332031 6.17578125 12.37304688 C6.15902344 13.30181641 6.14226562 14.23058594 6.125 15.1875 C6.11597656 16.12787109 6.10695313 17.06824219 6.09765625 18.03710938 C6.07409207 20.35818157 6.03822121 22.67912289 6 25 C0.06 25 -5.88 25 -12 25 C-12.10822792 21.93654856 -12.18741479 18.8769399 -12.25 15.8125 C-12.28351563 14.94818359 -12.31703125 14.08386719 -12.3515625 13.19335938 C-12.41676616 8.9388206 -12.39830711 6.64272284 -10.109375 2.94921875 C-6.70679665 -0.19501568 -4.57683036 -0.27460982 0 0 Z " fill="#0A4729" transform="translate(352,360)"/>
<path d="M0 0 C2.73968218 1.61890311 4.2060279 2.48871981 6 5 C6.73167124 8.46729225 6.56924964 11.78861229 6.375 15.3125 C6.34792969 16.24384766 6.32085937 17.17519531 6.29296875 18.13476562 C6.22252534 20.42417635 6.1149125 22.71239014 6 25 C0.06 25 -5.88 25 -12 25 C-12.10822792 21.93654856 -12.18741479 18.8769399 -12.25 15.8125 C-12.28351563 14.94818359 -12.31703125 14.08386719 -12.3515625 13.19335938 C-12.41676616 8.9388206 -12.39830711 6.64272284 -10.109375 2.94921875 C-6.73729166 -0.16683604 -4.56358715 -0.52656775 0 0 Z " fill="#0A4729" transform="translate(306,360)"/>
<path d="M0 0 C2.73968218 1.61890311 4.2060279 2.48871981 6 5 C6.73167124 8.46729225 6.56924964 11.78861229 6.375 15.3125 C6.34792969 16.24384766 6.32085937 17.17519531 6.29296875 18.13476562 C6.22252534 20.42417635 6.1149125 22.71239014 6 25 C0.06 25 -5.88 25 -12 25 C-12.10822792 21.93654856 -12.18741479 18.8769399 -12.25 15.8125 C-12.28351563 14.94818359 -12.31703125 14.08386719 -12.3515625 13.19335938 C-12.41676616 8.9388206 -12.39830711 6.64272284 -10.109375 2.94921875 C-6.73729166 -0.16683604 -4.56358715 -0.52656775 0 0 Z " fill="#0A4829" transform="translate(260,360)"/>
<path d="M0 0 C2.69990662 1.79993774 4.5418865 3.083773 6 6 C6.08342159 7.44848582 6.10732861 8.90070869 6.09765625 10.3515625 C6.09443359 11.20234375 6.09121094 12.053125 6.08789062 12.9296875 C6.07951172 13.81914062 6.07113281 14.70859375 6.0625 15.625 C6.05798828 16.5221875 6.05347656 17.419375 6.04882812 18.34375 C6.03702611 20.56252831 6.01909039 22.78127243 6 25 C0.06 25 -5.88 25 -12 25 C-12.10822792 21.93654856 -12.18741479 18.8769399 -12.25 15.8125 C-12.28351563 14.94818359 -12.31703125 14.08386719 -12.3515625 13.19335938 C-12.41676616 8.9388206 -12.39830711 6.64272284 -10.109375 2.94921875 C-6.73360278 -0.17024484 -4.56248239 -0.4473022 0 0 Z " fill="#0A4829" transform="translate(214,360)"/>
<path d="M0 0 C19.14 0 38.28 0 58 0 C58 2.31 58 4.62 58 7 C38.86 7 19.72 7 0 7 C0 4.69 0 2.38 0 0 Z " fill="#B1B599" transform="translate(84,244)"/>
<path d="M0 0 C4.5510927 0.81269513 5.75253823 1.91662631 8.5 5.625 C9.10406771 9.08526544 8.97322935 12.43854561 8.8125 15.9375 C8.78994141 16.86884766 8.76738281 17.80019531 8.74414062 18.75976562 C8.68544561 21.04887127 8.59577065 23.33714561 8.5 25.625 C2.89 25.625 -2.72 25.625 -8.5 25.625 C-8.63523325 22.39442783 -8.73421546 19.1695331 -8.8125 15.9375 C-8.85439453 15.02548828 -8.89628906 14.11347656 -8.93945312 13.17382812 C-9.02382678 8.53327717 -9.03507886 6.3472202 -6.19921875 2.51953125 C-3.5 0.625 -3.5 0.625 0 0 Z " fill="#0A4829" transform="translate(395.5,359.375)"/>
<path d="M0 0 C2.0007197 3.00107955 2.47329326 4.57294924 3.11328125 8.0390625 C3.30696289 9.07925537 3.50064453 10.11944824 3.70019531 11.19116211 C3.90225586 12.32432861 4.10431641 13.45749512 4.3125 14.625 C4.52616211 15.79748291 4.73982422 16.96996582 4.95996094 18.17797852 C6.98725084 29.5123048 8.71876299 40.88991233 10.38793945 52.28173828 C10.48873306 52.96656784 10.58952667 53.6513974 10.69337463 54.35697937 C10.966693 56.21935931 11.23687316 58.08219905 11.50683594 59.94506836 C12.03454606 63.52975221 12.03454606 63.52975221 13 67 C15.49034386 68.29660434 15.49034386 68.29660434 18 69 C17.67 70.65 17.34 72.3 17 74 C14.36 74 11.72 74 9 74 C8.896875 72.88625 8.79375 71.7725 8.6875 70.625 C8.460625 69.42875 8.23375 68.2325 8 67 C7.01 66.34 6.02 65.68 5 65 C4.44941711 62.87284851 4.44941711 62.87284851 4.20043945 60.20581055 C4.10056229 59.2068425 4.00068512 58.20787445 3.89778137 57.17863464 C3.80389633 56.0923024 3.71001129 55.00597015 3.61328125 53.88671875 C3.50654587 52.76618607 3.39981049 51.64565338 3.2898407 50.49116516 C3.06582641 48.1101959 2.84856006 45.72858375 2.63745117 43.34643555 C2.31708604 39.73913857 1.97590161 36.13430799 1.63085938 32.52929688 C1.41541706 30.21105329 1.20118762 27.89269661 0.98828125 25.57421875 C0.83834465 23.97812019 0.83834465 23.97812019 0.68537903 22.34977722 C0.03234471 14.88463157 -0.10837912 7.49167718 0 0 Z " fill="#115B38" transform="translate(122,117)"/>
<path d="M0 0 C0.33 0 0.66 0 1 0 C0.31570466 11.3923529 -0.63055568 22.7540524 -1.67456055 34.11865234 C-1.93956193 37.02259503 -2.19532844 39.92726923 -2.45117188 42.83203125 C-2.6218275 44.70057283 -2.79303156 46.56906441 -2.96484375 48.4375 C-3.03887924 49.2948877 -3.11291473 50.15227539 -3.18919373 51.03564453 C-4.35278661 63.35278661 -4.35278661 63.35278661 -8 67 C-8.39764263 68.98821313 -8.73775349 70.98944339 -9 73 C-11.31 73 -13.62 73 -16 73 C-16.495 70.525 -16.495 70.525 -17 68 C-15.80747871 67.69280029 -15.80747871 67.69280029 -14.59086609 67.37939453 C-11.75143378 66.23821158 -11.75143378 66.23821158 -11.032547 63.34326172 C-10.87203354 62.21678223 -10.71152008 61.09030273 -10.54614258 59.9296875 C-10.3527681 58.65496582 -10.15939362 57.38024414 -9.9601593 56.06689453 C-9.77137967 54.66962835 -9.58284282 53.27232934 -9.39453125 51.875 C-9.18450212 50.44742317 -8.97220581 49.0201782 -8.75773621 47.59326172 C-8.19801629 43.83525504 -7.66444635 40.07402333 -7.13763428 36.3112793 C-6.29026054 30.28756077 -5.4054858 24.26927627 -4.51688194 18.25152588 C-4.21016829 16.1465297 -3.91576376 14.04008173 -3.6230011 11.93310547 C-3.4390831 10.65838379 -3.2551651 9.38366211 -3.06567383 8.0703125 C-2.90754715 6.94383301 -2.74942047 5.81735352 -2.58650208 4.65673828 C-2 2 -2 2 0 0 Z " fill="#115B37" transform="translate(104,118)"/>
<path d="M0 0 C4.62 0 9.24 0 14 0 C14 6.6 14 13.2 14 20 C9.38 20 4.76 20 0 20 C0 13.4 0 6.8 0 0 Z " fill="#23784E" transform="translate(351,295)"/>
<path d="M0 0 C4.62 0 9.24 0 14 0 C14 6.6 14 13.2 14 20 C9.38 20 4.76 20 0 20 C0 13.4 0 6.8 0 0 Z " fill="#24784E" transform="translate(334,295)"/>
<path d="M0 0 C4.62 0 9.24 0 14 0 C14 6.6 14 13.2 14 20 C9.38 20 4.76 20 0 20 C0 13.4 0 6.8 0 0 Z " fill="#23784E" transform="translate(299,295)"/>
<path d="M0 0 C4.62 0 9.24 0 14 0 C14 6.6 14 13.2 14 20 C9.38 20 4.76 20 0 20 C0 13.4 0 6.8 0 0 Z " fill="#24784E" transform="translate(282,295)"/>
<path d="M0 0 C4.62 0 9.24 0 14 0 C14 6.6 14 13.2 14 20 C9.38 20 4.76 20 0 20 C0 13.4 0 6.8 0 0 Z " fill="#24784F" transform="translate(247,295)"/>
<path d="M0 0 C4.62 0 9.24 0 14 0 C14 6.6 14 13.2 14 20 C9.38 20 4.76 20 0 20 C0 13.4 0 6.8 0 0 Z " fill="#23784E" transform="translate(230,295)"/>
<path d="M0 0 C4.62 0 9.24 0 14 0 C14 6.6 14 13.2 14 20 C9.38 20 4.76 20 0 20 C0 13.4 0 6.8 0 0 Z " fill="#24794F" transform="translate(195,295)"/>
<path d="M0 0 C4.62 0 9.24 0 14 0 C14 6.6 14 13.2 14 20 C9.38 20 4.76 20 0 20 C0 13.4 0 6.8 0 0 Z " fill="#23784E" transform="translate(178,295)"/>
<path d="M0 0 C4.31899433 2.37046047 7.08920056 5.47069763 9 10 C9.74183387 15.51076586 8.55521268 18.82145731 5.48046875 23.265625 C2.80395732 26.40116874 0.08853541 27.6693501 -3.94921875 28.30859375 C-9.07536939 28.63080893 -11.99243534 27.35517041 -16 24 C-18.87565761 20.72769996 -19.89168611 18.1264645 -20.3125 13.75 C-19.85629548 8.27554573 -18.01221992 4.8902672 -13.9375 1.0625 C-9.26645992 -0.62702514 -4.89113032 -0.87466565 0 0 Z M-15 7 C-16.72869779 10.45739557 -16.48966895 14.21975568 -16 18 C-14.20606332 20.87029869 -13.01736724 22.49131638 -10 24 C-5.40123316 24.55112923 -2.02212113 24.61753151 2 22.1875 C5.02298202 18.88111341 5.53448369 15.51945928 5.46875 11.07421875 C4.70360231 7.68844021 2.79510017 6.08908231 0.0703125 4.0703125 C-5.64102035 1.11766118 -10.5632046 2.42875626 -15 7 Z " fill="#121212" transform="translate(365,449)"/>
<path d="M0 0 C4.31899433 2.37046047 7.08920056 5.47069763 9 10 C9.74183387 15.51076586 8.55521268 18.82145731 5.48046875 23.265625 C2.80395732 26.40116874 0.08853541 27.6693501 -3.94921875 28.30859375 C-9.07536939 28.63080893 -11.99243534 27.35517041 -16 24 C-18.87565761 20.72769996 -19.89168611 18.1264645 -20.3125 13.75 C-19.85629548 8.27554573 -18.01221992 4.8902672 -13.9375 1.0625 C-9.26645992 -0.62702514 -4.89113032 -0.87466565 0 0 Z M-15 7 C-16.72869779 10.45739557 -16.48966895 14.21975568 -16 18 C-14.20606332 20.87029869 -13.01736724 22.49131638 -10 24 C-5.40123316 24.55112923 -2.02212113 24.61753151 2 22.1875 C5.02298202 18.88111341 5.53448369 15.51945928 5.46875 11.07421875 C4.70360231 7.68844021 2.79510017 6.08908231 0.0703125 4.0703125 C-5.64102035 1.11766118 -10.5632046 2.42875626 -15 7 Z " fill="#121212" transform="translate(407,449)"/>
<path d="M0 0 C3.75835253 2.42204941 6.18495565 4.48714731 7.3828125 8.92578125 C8.1953797 14.06915871 7.88205337 17.41280683 4.8125 21.8125 C-0.02384801 26.17700918 -3.15474745 27.27691934 -9.57421875 27.23046875 C-13.87978003 26.54183638 -16.50215822 24.13866197 -19.1875 20.8125 C-21.48920224 16.93513582 -21.88752557 13.24314962 -21.1875 8.8125 C-16.63071419 0.18715543 -9.5439639 -3.55559439 0 0 Z M-15.8203125 5.83203125 C-17.99516356 8.98245836 -18.01718067 11.72482687 -17.7578125 15.46875 C-16.89298149 19.02285006 -15.07291451 20.68278929 -12.1875 22.8125 C-8.70178834 24.55535583 -4.89236842 23.67609033 -1.1875 22.8125 C1.80702434 20.56660675 2.62873122 19.36380633 3.8125 15.8125 C4.19185127 11.71550628 4.26178789 9.53456983 2.0625 6 C-0.97508874 3.04678873 -2.84433424 2.05128502 -7 1.3125 C-10.91906516 1.92725532 -12.94638771 3.14331494 -15.8203125 5.83203125 Z " fill="#0F0F0F" transform="translate(387.1875,419.1875)"/>
<path d="M0 0 C3.93244436 2.04953668 6.40422343 4.13204365 7.96875 8.2734375 C8.71753726 13.96843917 8.221472 18.3943545 4.96875 23.2734375 C0.77591556 27.07319371 -3.26779937 27.63095141 -8.74609375 27.55078125 C-12.36869393 27.11111525 -14.35881608 25.69135391 -17.03125 23.2734375 C-20.32924116 18.54631684 -20.93504228 13.87694966 -20.03125 8.2734375 C-15.90667187 0.02428124 -8.79129945 -3.14458019 0 0 Z M-15.03125 6.2734375 C-17.38367347 9.48128768 -17.4996709 12.36993002 -17.03125 16.2734375 C-14.99131092 19.9312593 -13.52705738 21.94289924 -10.03125 24.2734375 C-5.16922239 24.6285294 -1.82686809 23.9198772 1.96875 20.8359375 C4.90809438 17.06990251 5.42932454 15.06341271 4.96875 10.2734375 C3.31851991 7.20872448 1.912674 4.96564843 -0.90625 2.8984375 C-6.83910337 1.15348063 -10.30274491 2.40466061 -15.03125 6.2734375 Z " fill="#0C0C0C" transform="translate(186.03125,418.7265625)"/>
<path d="M0 0 C4.43041256 2.13609177 7.16159481 4.40398702 9 9 C9.715328 13.76885333 9.48847963 17.05793214 7.25 21.375 C3.46952757 25.78555117 0.56604986 27.75791982 -5.3125 28.3125 C-10.38517063 27.88261266 -13.04686239 25.68373932 -16.8125 22.4375 C-19.64023489 19.0144525 -19.38626305 14.7305375 -19.35546875 10.51171875 C-18.77468791 6.40795961 -17.00085633 4.79149426 -14 2 C-9.52981291 -0.98012473 -5.24104518 -0.60733142 0 0 Z M-15 8 C-16.53214888 11.06429776 -16.22938548 13.6165642 -16 17 C-14.34860695 20.5386994 -13.28394771 21.81070153 -10 24 C-6.60892629 24.54602034 -3.39125824 24.54627924 0 24 C2.82424288 21.80977082 4.41508603 20.16982793 6 17 C6.37510464 13.74909308 6.66540869 11.15611549 4.98828125 8.2421875 C1.83511835 4.32203903 -0.35612639 3.1860989 -5.3125 2.625 C-10.20301701 3.12234071 -11.57084492 4.57084492 -15 8 Z " fill="#0C0C0C" transform="translate(164,449)"/>
<path d="M0 0 C4.43041256 2.13609177 7.16159481 4.40398702 9 9 C9.715328 13.76885333 9.48847963 17.05793214 7.25 21.375 C3.46952757 25.78555117 0.56604986 27.75791982 -5.3125 28.3125 C-10.38517063 27.88261266 -13.04686239 25.68373932 -16.8125 22.4375 C-19.50645567 19.17639576 -19.33089334 15.30348637 -19.28515625 11.28515625 C-18.74463564 6.95358701 -16.33529651 4.21101567 -13.1953125 1.36328125 C-9.13565302 -1.15775284 -4.60728465 -0.60095017 0 0 Z M-15 8 C-16.53214888 11.06429776 -16.22938548 13.6165642 -16 17 C-14.34860695 20.5386994 -13.28394771 21.81070153 -10 24 C-6.60892629 24.54602034 -3.39125824 24.54627924 0 24 C2.82424288 21.80977082 4.41508603 20.16982793 6 17 C6.37510464 13.74909308 6.66540869 11.15611549 4.98828125 8.2421875 C1.83511835 4.32203903 -0.35612639 3.1860989 -5.3125 2.625 C-10.20301701 3.12234071 -11.57084492 4.57084492 -15 8 Z " fill="#0B0B0B" transform="translate(206,449)"/>
<path d="M0 0 C4.29 0 8.58 0 13 0 C13 6.6 13 13.2 13 20 C8.71 20 4.42 20 0 20 C0 13.4 0 6.8 0 0 Z " fill="#247A4F" transform="translate(317,295)"/>
<path d="M0 0 C4.29 0 8.58 0 13 0 C13 6.6 13 13.2 13 20 C8.71 20 4.42 20 0 20 C0 13.4 0 6.8 0 0 Z " fill="#247A4F" transform="translate(265,295)"/>
<path d="M0 0 C0.6084375 0.38929688 1.216875 0.77859375 1.84375 1.1796875 C6.27598532 4.00849651 10.71091931 6.82782562 15.1875 9.5859375 C15.90099609 10.02695801 16.61449219 10.46797852 17.34960938 10.92236328 C18.76549191 11.79651964 20.18341623 12.66737886 21.60351562 13.53466797 C22.26029297 13.94088379 22.91707031 14.34709961 23.59375 14.765625 C24.17833984 15.12430664 24.76292969 15.48298828 25.36523438 15.85253906 C27.12430908 17.08725399 28.520746 18.44424154 30 20 C32.47354192 22.48986893 34.95544493 24.95794335 37.5078125 27.3671875 C57.6029467 46.62252505 71.18625317 72.34347101 72.1171875 100.55078125 C72.12381529 103.37090475 72.09291485 106.18158291 72 109 C71.34 109 70.68 109 70 109 C69.98582031 108.08863281 69.97164063 107.17726563 69.95703125 106.23828125 C68.86523846 76.58282841 57.29983498 49.08217978 35.5234375 28.6796875 C32.75108977 26.353662 29.9054591 24.15480857 27 22 C26.27119629 21.45666016 25.54239258 20.91332031 24.79150391 20.35351562 C20.72472615 17.32776101 16.64497679 14.32057277 12.55078125 11.33203125 C11.79619629 10.77854004 11.04161133 10.22504883 10.26416016 9.65478516 C8.72789896 8.53199257 7.18567156 7.4173267 5.63818359 6.31005859 C4.9055127 5.77848145 4.1728418 5.2469043 3.41796875 4.69921875 C2.43026489 3.99091919 2.43026489 3.99091919 1.42260742 3.26831055 C0.95314697 2.84976807 0.48368652 2.43122559 0 2 C0 1.34 0 0.68 0 0 Z " fill="#0C4B2C" transform="translate(313,182)"/>
<path d="M0 0 C4.29 0 8.58 0 13 0 C13 6.27 13 12.54 13 19 C8.71 19 4.42 19 0 19 C0 12.73 0 6.46 0 0 Z " fill="#257C51" transform="translate(369,295)"/>
<path d="M0 0 C4.29 0 8.58 0 13 0 C13 6.27 13 12.54 13 19 C8.71 19 4.42 19 0 19 C0 12.73 0 6.46 0 0 Z " fill="#257C51" transform="translate(213,295)"/>
<path d="M0 0 C0.99 0.495 0.99 0.495 2 1 C-6.0497025 7.22302795 -14.09385408 13.42430753 -22.4375 19.25 C-28.37249664 23.42001672 -33.75590333 27.99297822 -39 33 C-39.59941406 33.53625 -40.19882813 34.0725 -40.81640625 34.625 C-62.172848 54.44536358 -68.9956812 82.06989903 -71 110 C-71.66 110 -72.32 110 -73 110 C-74.30237741 83.51832602 -64.16421337 57.877923 -47 38 C-46.11441406 36.89785156 -46.11441406 36.89785156 -45.2109375 35.7734375 C-40.70899866 30.35195371 -35.61353034 26.11390996 -30.01123047 21.89282227 C-27.32655924 19.86633578 -24.92414997 17.92145852 -22.578125 15.4921875 C-19.33221522 12.35447472 -15.79480353 10.18726078 -11.9375 7.875 C-5.80011712 4.18780524 -5.80011712 4.18780524 0 0 Z " fill="#0C4B2C" transform="translate(248,181)"/>
<path d="M0 0 C3.3 0 6.6 0 10 0 C12.03120707 3.04681061 12.24659875 3.60118324 12.1953125 7.01171875 C12.18564453 8.14770508 12.18564453 8.14770508 12.17578125 9.30664062 C12.15902344 10.09232422 12.14226562 10.87800781 12.125 11.6875 C12.11597656 12.48478516 12.10695313 13.28207031 12.09765625 14.10351562 C12.07411585 16.069139 12.03824547 18.03460775 12 20 C8.04 20 4.08 20 0 20 C0 13.4 0 6.8 0 0 Z " fill="#24794F" transform="translate(386,295)"/>
<path d="M0 0 C3.3 0 6.6 0 10 0 C10 6.6 10 13.2 10 20 C6.04 20 2.08 20 -2 20 C-2.05407567 17.41638482 -2.093707 14.83390745 -2.125 12.25 C-2.14175781 11.52039063 -2.15851563 10.79078125 -2.17578125 10.0390625 C-2.21372922 5.86478602 -1.91514727 3.83029454 0 0 Z " fill="#23784E" transform="translate(164,295)"/>
<path d="M0 0 C2.98408259 0.44761239 3.6763428 1.02572158 5.5 3.375 C5.84057617 5.4597168 5.84057617 5.4597168 5.79296875 7.82421875 C5.78330078 8.67177734 5.77363281 9.51933594 5.76367188 10.39257812 C5.73853516 11.27365234 5.71339844 12.15472656 5.6875 13.0625 C5.67396484 13.95517578 5.66042969 14.84785156 5.64648438 15.76757812 C5.61114643 17.97030983 5.55733969 20.1727312 5.5 22.375 C1.87 22.375 -1.76 22.375 -5.5 22.375 C-5.58083562 19.27031355 -5.64041718 16.16772431 -5.6875 13.0625 C-5.71263672 12.18142578 -5.73777344 11.30035156 -5.76367188 10.39257812 C-5.77333984 9.54501953 -5.78300781 8.69746094 -5.79296875 7.82421875 C-5.8086792 7.04393311 -5.82438965 6.26364746 -5.84057617 5.4597168 C-5.25341192 1.86559813 -3.51020848 0.52653127 0 0 Z " fill="#5F5F5F" transform="translate(113.5,327.625)"/>
<path d="M0 0 C2.375 0.75 2.375 0.75 3.375 1.75 C3.44758946 3.93639453 3.45873783 6.12500389 3.4375 8.3125 C3.42847656 9.51003906 3.41945313 10.70757812 3.41015625 11.94140625 C3.39855469 12.86824219 3.38695312 13.79507812 3.375 14.75 C0.405 14.75 -2.565 14.75 -5.625 14.75 C-5.70607583 12.81318839 -5.76422475 10.8754066 -5.8125 8.9375 C-5.84730469 7.85855469 -5.88210938 6.77960938 -5.91796875 5.66796875 C-5.625 2.75 -5.625 2.75 -4.27734375 0.84765625 C-2.625 -0.25 -2.625 -0.25 0 0 Z " fill="#22744B" transform="translate(343.625,327.25)"/>
<path d="M0 0 C2.375 0.75 2.375 0.75 3.375 1.75 C3.44758946 3.93639453 3.45873783 6.12500389 3.4375 8.3125 C3.42847656 9.51003906 3.41945312 10.70757812 3.41015625 11.94140625 C3.39855469 12.86824219 3.38695312 13.79507812 3.375 14.75 C0.405 14.75 -2.565 14.75 -5.625 14.75 C-5.70607583 12.81318839 -5.76422475 10.8754066 -5.8125 8.9375 C-5.84730469 7.85855469 -5.88210937 6.77960938 -5.91796875 5.66796875 C-5.625 2.75 -5.625 2.75 -4.27734375 0.84765625 C-2.625 -0.25 -2.625 -0.25 0 0 Z " fill="#22744B" transform="translate(176.625,327.25)"/>
<path d="M0 0 C3.0625 0.1875 3.0625 0.1875 5.0625 2.1875 C5.2578125 5.0078125 5.2578125 5.0078125 5.1875 8.3125 C5.16945313 9.40820312 5.15140625 10.50390625 5.1328125 11.6328125 C5.10960937 12.47585938 5.08640625 13.31890625 5.0625 14.1875 C2.0925 14.1875 -0.8775 14.1875 -3.9375 14.1875 C-3.96435938 12.04173363 -3.98383088 9.89587355 -4 7.75 C-4.01160156 6.55503906 -4.02320313 5.36007812 -4.03515625 4.12890625 C-3.90635264 0.24934166 -3.90635264 0.24934166 0 0 Z " fill="#23764D" transform="translate(258.9375,327.8125)"/>
<path d="M0 0 C2.5 0.25 2.5 0.25 4.5 2.25 C4.6953125 5.0703125 4.6953125 5.0703125 4.625 8.375 C4.60695313 9.47070312 4.58890625 10.56640625 4.5703125 11.6953125 C4.54710937 12.53835938 4.52390625 13.38140625 4.5 14.25 C1.53 14.25 -1.44 14.25 -4.5 14.25 C-4.55389087 12.29196493 -4.59274217 10.33351091 -4.625 8.375 C-4.64820313 7.28445313 -4.67140625 6.19390625 -4.6953125 5.0703125 C-4.44023653 1.38701552 -3.71976026 0.37197603 0 0 Z " fill="#23784E" transform="translate(384.5,327.75)"/>
<path d="M0 0 C2.5 0.25 2.5 0.25 4.5 2.25 C4.6953125 5.0703125 4.6953125 5.0703125 4.625 8.375 C4.60695312 9.47070312 4.58890625 10.56640625 4.5703125 11.6953125 C4.54710937 12.53835938 4.52390625 13.38140625 4.5 14.25 C1.53 14.25 -1.44 14.25 -4.5 14.25 C-4.55389087 12.29196493 -4.59274217 10.33351091 -4.625 8.375 C-4.64820313 7.28445313 -4.67140625 6.19390625 -4.6953125 5.0703125 C-4.44023653 1.38701552 -3.71976026 0.37197603 0 0 Z " fill="#23784E" transform="translate(217.5,327.75)"/>
<path d="M0 0 C3 0.125 3 0.125 4 1.125 C4.07258946 3.31139453 4.08373783 5.50000389 4.0625 7.6875 C4.05347656 8.88503906 4.04445313 10.08257812 4.03515625 11.31640625 C4.02355469 12.24324219 4.01195312 13.17007812 4 14.125 C1.36 14.125 -1.28 14.125 -4 14.125 C-4.02685938 11.97923363 -4.04633088 9.83337355 -4.0625 7.6875 C-4.07410156 6.49253906 -4.08570313 5.29757812 -4.09765625 4.06640625 C-3.96813875 0.16533911 -3.96813875 0.16533911 0 0 Z " fill="#247A50" transform="translate(301,327.875)"/>
<path d="M0 0 C2 2 2 2 2 7 C-1.96 7 -5.92 7 -10 7 C-10 2 -10 2 -8.375 0.125 C-5.18137449 -1.38776998 -3.35297515 -0.94757993 0 0 Z " fill="#F3BA30" transform="translate(284,151)"/>
<path d="M0 0 C0.33 0 0.66 0 1 0 C1.20211361 16.19154557 1.20211361 16.19154557 0 21 C-0.99 21.66 -1.98 22.32 -3 23 C-2.6893306 20.29144546 -2.37652255 17.58316612 -2.0625 14.875 C-1.97548828 14.11445312 -1.88847656 13.35390625 -1.79882812 12.5703125 C-1.3084513 8.35670423 -0.74097022 4.178805 0 0 Z " fill="#0A4025" transform="translate(109,76)"/>
<path d="M0 0 C2.0625 0.4375 2.0625 0.4375 4 1 C3.67 2.65 3.34 4.3 3 6 C1.68 5.67 0.36 5.34 -1 5 C-1 1 -1 1 0 0 Z " fill="#E2AC2D" transform="translate(112,33)"/>
<path d="M0 0 C2.475 0.495 2.475 0.495 5 1 C4.67 2.32 4.34 3.64 4 5 C2.68 5 1.36 5 0 5 C0 3.35 0 1.7 0 0 Z " fill="#F7BD31" transform="translate(111,17)"/>
<path d="M0 0 C4.43458973 1.3937282 6.87378374 3.60582235 10 7 C9.01 7.33 8.02 7.66 7 8 C5.83035398 6.8572081 4.66435444 5.71068285 3.5 4.5625 C2.8503125 3.92441406 2.200625 3.28632813 1.53125 2.62890625 C0 1 0 1 0 0 Z " fill="#0E5331" transform="translate(299,173)"/>
<path d="M0 0 C0.99 0 1.98 0 3 0 C3 2.31 3 4.62 3 7 C2.01 7 1.02 7 0 7 C0 4.69 0 2.38 0 0 Z " fill="#010201" transform="translate(92,465)"/>
<path d="M0 0 C0.99 0 1.98 0 3 0 C3 2.31 3 4.62 3 7 C2.01 7 1.02 7 0 7 C0 4.69 0 2.38 0 0 Z " fill="#020201" transform="translate(92,424)"/>
<path d="M0 0 C0.99 0 1.98 0 3 0 C3 1.98 3 3.96 3 6 C2.01 6 1.02 6 0 6 C0 4.02 0 2.04 0 0 Z " fill="#000000" transform="translate(92,486)"/>
<path d="M0 0 C0.99 0 1.98 0 3 0 C3 1.98 3 3.96 3 6 C2.01 6 1.02 6 0 6 C0 4.02 0 2.04 0 0 Z " fill="#000000" transform="translate(92,445)"/>
<path d="M0 0 C0.99 0 1.98 0 3 0 C3 1.98 3 3.96 3 6 C2.01 6 1.02 6 0 6 C0 4.02 0 2.04 0 0 Z " fill="#000000" transform="translate(92,404)"/>
</svg>
