<?xml version="1.0" encoding="UTF-8"?>
<svg version="1.1" xmlns="http://www.w3.org/2000/svg" width="512" height="512">
<path d="M0 0 C0.7781884 0.21711262 1.5563768 0.43422523 2.35814667 0.65791702 C4.9410198 1.38119006 7.51945083 2.11915494 10.09814453 2.85717773 C11.94836004 3.37841594 13.79884101 3.89871262 15.64956665 4.4181366 C20.64192768 5.82198544 25.63064058 7.23841236 30.61880493 8.65708923 C35.8317853 10.13729267 41.04808821 11.60568681 46.26416016 13.07495117 C53.78376739 15.19415998 61.30232764 17.31701298 68.81954575 19.44468117 C82.04731748 23.18863313 95.28155644 26.90903339 108.52001953 30.61499023 C110.39907853 31.14111779 112.27813737 31.66724592 114.15719604 32.19337463 C116.90294724 32.96211303 119.64871216 33.73080233 122.39450645 34.49938679 C130.87977132 36.87455704 139.36437599 39.2520727 147.84806442 41.63286781 C149.3255308 42.04740954 150.80304835 42.46176893 152.2806282 42.87590599 C164.15089427 46.20298174 176.00227749 49.5915059 187.85595703 52.97827148 C187.85595703 156.59827148 187.85595703 260.21827148 187.85595703 366.97827148 C110.71664558 391.96706252 110.71664558 391.96706252 74.32861328 403.38842773 C64.36333312 406.52361169 54.42451211 409.73450812 44.49555969 412.98252869 C42.23844228 413.72064004 39.98092198 414.45750563 37.7232666 415.19396973 C36.23021773 415.68113126 34.73717572 416.16831381 33.24414062 416.65551758 C32.50875187 416.89547077 31.77336311 417.13542397 31.01568985 417.38264847 C26.68023653 418.79846676 22.34801352 420.22368345 18.01796246 421.65593243 C15.3300043 422.54277547 12.63935326 423.4212231 9.9479847 424.29765511 C8.11103336 424.89884022 6.27754248 425.51056736 4.44419861 426.12266541 C-6.97353114 429.82670303 -14.74926314 430.75887448 -26.19873047 426.91186523 C-27.79637741 426.40067894 -27.79637741 426.40067894 -29.42630005 425.87916565 C-32.96327145 424.74258198 -36.49081642 423.57919004 -40.01904297 422.41577148 C-42.54193582 421.59957051 -45.06528812 420.7849568 -47.58935547 419.97241211 C-52.97707595 418.23483759 -58.3603521 416.48407277 -63.74072266 414.72387695 C-72.16347674 411.96857767 -80.59430069 409.23856163 -89.02685547 406.51342773 C-91.87446046 405.59294799 -94.72202742 404.67235063 -97.56958008 403.75170898 C-98.27629695 403.52324846 -98.98301382 403.29478794 -99.71114635 403.05940437 C-104.71789358 401.44050249 -109.7233101 399.8175286 -114.72827148 398.19311523 C-136.12356388 391.2515162 -157.55624191 384.43519155 -179.01708984 377.69897461 C-180.13178146 377.34871719 -181.24647308 376.99845978 -182.39494324 376.6375885 C-184.42620692 375.99961449 -186.45783046 375.36278416 -188.48994446 374.7275238 C-196.41095771 372.24071365 -204.26346678 369.60513021 -212.14404297 366.97827148 C-212.14404297 263.35827148 -212.14404297 159.73827148 -212.14404297 52.97827148 C-110.15442028 24.32950107 -110.15442028 24.32950107 -74.7376709 14.44219971 C-66.97814126 12.27591396 -59.21884258 10.10880185 -51.45972252 7.94104958 C-48.84880527 7.21177132 -46.2377439 6.48301105 -43.62666321 5.75431824 C-42.82739253 5.53095197 -42.02812185 5.3075857 -41.20463085 5.07745075 C-39.66221277 4.64683969 -38.11945704 4.21743588 -36.57633686 3.78934765 C-33.09325634 2.82001044 -29.6213518 1.82838013 -26.16488647 0.76773071 C-24.94975372 0.39997528 -23.73462097 0.03221985 -22.48266602 -0.34667969 C-21.44377731 -0.67101486 -20.40488861 -0.99535004 -19.33451843 -1.32951355 C-12.40585101 -2.83277767 -6.66807782 -1.93837279 0 0 Z " fill="#000000" transform="translate(268.14404296875,42.021728515625)"/>
<path d="M0 0 C7.87362002 1.12480286 7.87362002 1.12480286 10.9609375 2.12890625 C11.66621582 2.35497559 12.37149414 2.58104492 13.09814453 2.81396484 C13.84950684 3.06098145 14.60086914 3.30799805 15.375 3.5625 C16.18952637 3.82498535 17.00405273 4.0874707 17.84326172 4.35791016 C19.62082313 4.93092013 21.39765183 5.50620692 23.17382812 6.08349609 C27.10952799 7.35981065 31.05135989 8.61667783 34.99291992 9.87475586 C38.17440286 10.89077703 41.35487121 11.9099235 44.53515625 12.9296875 C48.7914404 14.29390582 53.04926139 15.6531422 57.30859375 17.0078125 C68.84203511 20.67974965 80.34372427 24.43230996 91.82006836 28.27905273 C97.71937596 30.25235225 103.63084166 32.15793237 109.5859375 33.95703125 C124.30956712 38.45498217 138.94415822 43.25683541 153.60546875 47.953125 C157.94046783 49.34149723 162.27648997 50.72661143 166.61328125 52.109375 C177.76739937 55.66784068 188.90447809 59.26256104 200 63 C200.33 73.23 200.66 83.46 201 94 C210.45482824 91.04118182 210.45482824 91.04118182 219.90771484 88.07617188 C221.08027832 87.71072266 222.2528418 87.34527344 223.4609375 86.96875 C224.66540527 86.59169922 225.86987305 86.21464844 227.11083984 85.82617188 C230 85 230 85 232 85 C232 95.56 232 106.12 232 117 C221.81963425 121.0721463 211.4019229 124.53269237 201 128 C200.505 223.04 200.505 223.04 200 320 C188.75148938 317.75029788 188.75148938 317.75029788 183.52709961 316.0390625 C182.34814117 315.65613541 181.16918274 315.27320831 179.95449829 314.87867737 C178.68709585 314.46083829 177.41971155 314.04294415 176.15234375 313.625 C174.79952804 313.18372476 173.44652611 312.74302007 172.09335327 312.30284119 C169.21070709 311.36415509 166.32913666 310.42226658 163.44839478 309.47775269 C156.52687065 307.20883949 149.59954953 304.95772748 142.67240715 302.70603752 C141.10019703 302.1949352 139.52804996 301.68363886 137.95596504 301.17215157 C123.10161999 296.33969247 108.21439082 291.62227666 93.3125 286.9375 C62.16194273 277.10410113 31.08379063 267.04245544 0 257 C0 172.19 0 87.38 0 0 Z " fill="#1A1A1A" transform="translate(56,152)"/>
<path d="M0 0 C0.7781884 0.21711262 1.5563768 0.43422523 2.35814667 0.65791702 C4.9410198 1.38119006 7.51945083 2.11915494 10.09814453 2.85717773 C11.94836004 3.37841594 13.79884101 3.89871262 15.64956665 4.4181366 C20.64192768 5.82198544 25.63064058 7.23841236 30.61880493 8.65708923 C35.8317853 10.13729267 41.04808821 11.60568681 46.26416016 13.07495117 C53.78376739 15.19415998 61.30232764 17.31701298 68.81954575 19.44468117 C82.04731748 23.18863313 95.28155644 26.90903339 108.52001953 30.61499023 C110.39907853 31.14111779 112.27813737 31.66724592 114.15719604 32.19337463 C116.90294724 32.96211303 119.64871216 33.73080233 122.39450645 34.49938679 C130.87977132 36.87455704 139.36437599 39.2520727 147.84806442 41.63286781 C149.3255308 42.04740954 150.80304835 42.46176893 152.2806282 42.87590599 C164.15089427 46.20298174 176.00227749 49.5915059 187.85595703 52.97827148 C187.85595703 71.78827148 187.85595703 90.59827148 187.85595703 109.97827148 C173.02518027 115.68241639 173.02518027 115.68241639 166.54345703 117.47827148 C165.08873213 117.8952025 163.63431182 118.31319756 162.18017578 118.73217773 C161.46007324 118.93858887 160.7399707 119.145 159.99804688 119.35766602 C151.04085387 121.95274062 142.19285683 124.82209928 133.41845703 127.97827148 C125.67363171 130.76155424 117.83934343 133.09718734 109.93359375 135.3737793 C101.00033542 137.97292708 92.1724734 140.82943125 83.41845703 143.97827148 C75.67363171 146.76155424 67.83934343 149.09718734 59.93359375 151.3737793 C51.00033542 153.97292708 42.1724734 156.82943125 33.41845703 159.97827148 C26.37893189 162.50808825 19.27861366 164.68445323 12.09033203 166.74780273 C7.04308178 168.19976752 2.03684482 169.7776956 -2.96850586 171.3671875 C-4.69121609 171.91208313 -6.41746555 172.4457565 -8.14404297 172.97827148 C-9.08860352 173.2996106 -9.08860352 173.2996106 -10.05224609 173.62744141 C-12.74649158 174.07931241 -14.33373204 173.50920825 -16.90576172 172.60717773 C-17.84669678 172.28426758 -18.78763184 171.96135742 -19.75708008 171.62866211 C-21.27893921 171.09015625 -21.27893921 171.09015625 -22.83154297 170.54077148 C-25.01333862 169.79062936 -27.19564664 169.04197609 -29.37841797 168.29467773 C-30.50054687 167.90812012 -31.62267578 167.5215625 -32.77880859 167.12329102 C-38.0242884 165.33851879 -43.30083387 163.65536353 -48.58154297 161.97827148 C-49.61206787 161.64972168 -50.64259277 161.32117188 -51.7043457 160.98266602 C-54.85049054 159.97987364 -57.99720802 158.97889592 -61.14404297 157.97827148 C-65.39463573 156.62595784 -69.64468591 155.27196321 -73.89404297 153.91577148 C-74.92972412 153.58536865 -75.96540527 153.25496582 -77.0324707 152.91455078 C-83.75574597 150.7625301 -90.45440496 148.54490875 -97.14404297 146.29077148 C-104.75445469 143.72966458 -112.40347072 141.37960901 -120.11669922 139.15014648 C-131.08112983 135.97754988 -141.91373731 132.40792797 -152.73291016 128.77563477 C-160.73114912 126.09758887 -168.7627356 123.52975036 -176.80102539 120.97485352 C-184.73179258 118.44781177 -192.63177809 115.83677974 -200.50927734 113.14819336 C-201.31171875 112.8768457 -202.11416016 112.60549805 -202.94091797 112.32592773 C-203.63540039 112.0888208 -204.32988281 111.85171387 -205.04541016 111.60742188 C-207.37088472 110.91026646 -209.76346094 110.45438789 -212.14404297 109.97827148 C-212.14404297 91.16827148 -212.14404297 72.35827148 -212.14404297 52.97827148 C-199.24843956 49.35245196 -186.35267139 45.72722271 -173.45654297 42.10327148 C-172.47701534 41.82800755 -171.49748772 41.55274361 -170.48827744 41.26913834 C-134.62896787 31.19243595 -98.75996583 21.15065279 -62.88435555 11.13214588 C-59.06310426 10.06498667 -55.24193008 8.9975515 -51.42076111 7.93009758 C-48.82596956 7.20539031 -46.23104444 6.48116295 -43.6361084 5.75697327 C-42.83547407 5.53322368 -42.03483974 5.30947409 -41.20994377 5.07894421 C-39.6655587 4.64777731 -38.12083596 4.21781772 -36.57574654 3.78918171 C-33.09286237 2.81990175 -29.62115626 1.82832013 -26.16488647 0.76773071 C-24.94975372 0.39997528 -23.73462097 0.03221985 -22.48266602 -0.34667969 C-21.44377731 -0.67101486 -20.40488861 -0.99535004 -19.33451843 -1.32951355 C-12.40585101 -2.83277767 -6.66807782 -1.93837279 0 0 Z " fill="#323232" transform="translate(268.14404296875,42.021728515625)"/>
<path d="M0 0 C0 10.89 0 21.78 0 33 C-14.83077676 38.70414491 -14.83077676 38.70414491 -21.3125 40.5 C-22.7672249 40.91693102 -24.22164521 41.33492607 -25.67578125 41.75390625 C-26.39588379 41.96031738 -27.11598633 42.16672852 -27.85791016 42.37939453 C-36.81510316 44.97446914 -45.6631002 47.8438278 -54.4375 51 C-62.18232532 53.78328276 -70.0166136 56.11891586 -77.92236328 58.39550781 C-86.85562162 60.9946556 -95.68348363 63.85115977 -104.4375 67 C-112.18232532 69.78328276 -120.0166136 72.11891586 -127.92236328 74.39550781 C-136.85562162 76.9946556 -145.68348363 79.85115977 -154.4375 83 C-161.47702514 85.52981677 -168.57734337 87.70618174 -175.765625 89.76953125 C-180.81287525 91.22149603 -185.81911221 92.79942412 -190.82446289 94.38891602 C-192.54717312 94.93381165 -194.27342258 95.46748502 -196 96 C-196.62970703 96.21422607 -197.25941406 96.42845215 -197.90820312 96.64916992 C-200.60244861 97.10104093 -202.18968907 96.53093677 -204.76171875 95.62890625 C-205.70265381 95.30599609 -206.64358887 94.98308594 -207.61303711 94.65039062 C-208.62760986 94.29138672 -209.64218262 93.93238281 -210.6875 93.5625 C-212.86929565 92.81235787 -215.05160367 92.0637046 -217.234375 91.31640625 C-218.35650391 90.92984863 -219.47863281 90.54329102 -220.63476562 90.14501953 C-225.88024544 88.36024731 -231.1567909 86.67709204 -236.4375 85 C-237.4680249 84.6714502 -238.4985498 84.34290039 -239.56030273 84.00439453 C-242.70644758 83.00160216 -245.85316505 82.00062444 -249 81 C-253.25059276 79.64768636 -257.50064294 78.29369172 -261.75 76.9375 C-262.78568115 76.60709717 -263.8213623 76.27669434 -264.88842773 75.9362793 C-271.611703 73.78425861 -278.31036199 71.56663727 -285 69.3125 C-292.61041172 66.7513931 -300.25942775 64.40133752 -307.97265625 62.171875 C-318.93708686 58.9992784 -329.76969434 55.42965649 -340.58886719 51.79736328 C-348.58710615 49.11931738 -356.61869263 46.55147887 -364.65698242 43.99658203 C-372.58774961 41.46954028 -380.48773512 38.85850825 -388.36523438 36.16992188 C-389.16767578 35.89857422 -389.97011719 35.62722656 -390.796875 35.34765625 C-391.49135742 35.11054932 -392.18583984 34.87344238 -392.90136719 34.62915039 C-395.22684176 33.93199497 -397.61941797 33.47611641 -400 33 C-400 22.44 -400 11.88 -400 1 C-395.23397749 1.68086036 -391.58128935 2.30312481 -387.14306641 3.75561523 C-386.02391342 4.11860718 -384.90476044 4.48159912 -383.75169373 4.85559082 C-382.54715042 5.25258179 -381.34260712 5.64957275 -380.1015625 6.05859375 C-378.81199613 6.47879215 -377.52224205 6.89841483 -376.23231506 7.31750488 C-373.47322768 8.21492926 -370.71524696 9.11564621 -367.95809937 10.01901245 C-361.31311455 12.19577138 -354.66228751 14.35457282 -348.01171684 16.51419258 C-346.49611389 17.00641563 -344.98057704 17.4988423 -343.46510506 17.99146843 C-327.76896807 23.09335201 -312.03509015 28.07091174 -296.28475952 33.00305176 C-282.48414292 37.32602677 -268.7154638 41.73058815 -254.98277855 46.26403618 C-252.62125868 47.04295531 -250.25905059 47.81974681 -247.89656067 48.59571838 C-247.12128619 48.85038596 -246.34601171 49.10505354 -245.54724407 49.36743832 C-243.9875868 49.87970749 -242.42790022 50.39188744 -240.86818409 50.90397739 C-236.29878641 52.40581587 -231.73462131 53.92241205 -227.17374611 55.44992256 C-224.33892243 56.39567266 -221.49978592 57.32791621 -218.65938568 58.25676727 C-217.33921447 58.69168552 -216.02091181 59.13232451 -214.70471954 59.57913971 C-204.97290179 62.98625238 -204.97290179 62.98625238 -195 62 C-194.07812393 61.73701614 -193.15624786 61.47403229 -192.20643616 61.20307922 C-188.78577764 60.17082408 -185.39592255 59.06415087 -182.00390625 57.94140625 C-180.71594975 57.52112153 -179.42776087 57.10154839 -178.13935852 56.68263245 C-175.38609616 55.78610914 -172.6342592 54.88538739 -169.88348389 53.98126221 C-163.24769039 51.8006557 -156.60457193 49.64252061 -149.96213531 47.48225403 C-147.68972226 46.7430044 -145.41757892 46.00292989 -143.14544678 45.26281738 C-129.41654658 40.79409991 -115.65101512 36.4462805 -101.875 32.125 C-85.80206963 27.07987608 -69.75363281 21.96636853 -53.73046875 16.765625 C-52.50235348 16.36709887 -52.50235348 16.36709887 -51.2494278 15.9605217 C-43.11612507 13.32075807 -34.98424977 10.67666576 -26.8552618 8.02364349 C-23.85297439 7.04429864 -20.84998228 6.06712728 -17.84685707 5.09035492 C-16.43950128 4.63193593 -15.03250198 4.17242097 -13.62587547 3.7117691 C-11.69813089 3.08046852 -9.7691425 2.45296975 -7.84008789 1.82568359 C-6.75514542 1.47138275 -5.67020294 1.11708191 -4.55238342 0.75204468 C-2 0 -2 0 0 0 Z " fill="#F5BC30" transform="translate(456,119)"/>
<path d="M0 0 C0.7781884 0.21711262 1.5563768 0.43422523 2.35814667 0.65791702 C4.9410198 1.38119006 7.51945083 2.11915494 10.09814453 2.85717773 C11.94836004 3.37841594 13.79884101 3.89871262 15.64956665 4.4181366 C20.64192768 5.82198544 25.63064058 7.23841236 30.61880493 8.65708923 C35.8317853 10.13729267 41.04808821 11.60568681 46.26416016 13.07495117 C53.78376739 15.19415998 61.30232764 17.31701298 68.81954575 19.44468117 C82.04731748 23.18863313 95.28155644 26.90903339 108.52001953 30.61499023 C110.39907853 31.14111779 112.27813737 31.66724592 114.15719604 32.19337463 C116.90294724 32.96211303 119.64871216 33.73080233 122.39450645 34.49938679 C131.64294957 37.08818364 140.89059018 39.67983392 150.13720703 42.27514648 C150.88823826 42.48594282 151.63926949 42.69673916 152.41305923 42.91392326 C164.23737985 46.23376343 176.05288783 49.58358344 187.85595703 52.97827148 C185.59734883 55.23687968 184.15934305 55.70344483 181.15014648 56.68994141 C179.68270744 57.1750544 179.68270744 57.1750544 178.18562317 57.66996765 C177.12421616 58.0127626 176.06280914 58.35555756 174.96923828 58.70874023 C173.87886765 59.06341873 172.78849701 59.41809723 171.66508484 59.78352356 C169.35357402 60.53238216 167.0409414 61.27778544 164.72729492 62.02001953 C161.19543529 63.15708596 157.67130683 64.31617058 154.14697266 65.47631836 C151.90066985 66.20099712 149.65393807 66.9243478 147.40673828 67.64624023 C146.35545242 67.99510788 145.30416656 68.34397552 144.22102356 68.70341492 C138.65454521 70.46147725 134.6494735 71.46835217 128.85595703 69.97827148 C128.10987686 69.79154373 127.36379669 69.60481598 126.59510803 69.41242981 C123.92857928 68.72769855 121.27965314 67.9929619 118.62939453 67.24780273 C117.6458902 66.97489914 116.66238586 66.70199554 115.64907837 66.42082214 C112.50855318 65.54821624 109.36977013 64.66951344 106.23095703 63.79077148 C104.17637619 63.21942426 102.12168951 62.64845748 100.06689453 62.07788086 C89.40415759 59.11237681 78.75531087 56.10061393 68.11642456 53.05073547 C60.87610355 50.97739736 53.62033056 48.96584652 46.35595703 46.97827148 C37.86403642 44.64615198 29.38201835 42.28626152 20.91845703 39.85327148 C19.25830292 39.38190978 17.59814668 38.91055557 15.93798828 38.43920898 C12.27815993 37.39683006 8.63458732 36.30808212 4.99267578 35.20483398 C3.03058705 34.62879908 1.06835102 34.05326561 -0.89404297 33.47827148 C-1.78728271 33.19838379 -2.68052246 32.91849609 -3.60083008 32.63012695 C-9.82958868 30.83706175 -13.99913715 31.10751792 -20.14404297 32.97827148 C-21.86660675 33.416087 -23.5906483 33.84811841 -25.31591797 34.27514648 C-27.17593593 34.75704661 -29.03528605 35.24153002 -30.89404297 35.72827148 C-32.3995874 36.12187866 -32.3995874 36.12187866 -33.93554688 36.5234375 C-42.22893764 38.70724643 -50.47550963 41.03581406 -58.71435547 43.41577148 C-64.59856202 45.11483882 -70.49537786 46.76770913 -76.39404297 48.41577148 C-77.44060059 48.70830811 -78.4871582 49.00084473 -79.56542969 49.30224609 C-81.69510566 49.89737457 -83.8248259 50.49234463 -85.95458984 51.0871582 C-91.18506358 52.54851989 -96.41450263 54.01357386 -101.64404297 55.47827148 C-103.71825835 56.05901269 -105.7924771 56.63974184 -107.86669922 57.22045898 C-113.20436245 58.71497129 -118.54182866 60.21018462 -123.87890625 61.70678711 C-125.99265068 62.29846797 -128.10689966 62.88834966 -130.22167969 63.47631836 C-134.98262046 64.80128643 -139.73446336 66.14504882 -144.46826172 67.56420898 C-145.28496338 67.80445801 -146.10166504 68.04470703 -146.94311523 68.29223633 C-148.43271683 68.73159609 -149.91927571 69.18149248 -151.40161133 69.64477539 C-159.82701886 72.10257156 -167.01134504 69.25171856 -175.07373047 66.66967773 C-176.10466827 66.34289536 -177.13560608 66.01611298 -178.19778442 65.6794281 C-180.36534006 64.99044237 -182.53198279 64.29857876 -184.69775391 63.60400391 C-188.02577706 62.53861572 -191.35808039 61.48747241 -194.69091797 60.43725586 C-196.79796162 59.76558505 -198.90474214 59.09308811 -201.01123047 58.41967773 C-202.01217743 58.10503067 -203.01312439 57.79038361 -204.04440308 57.46620178 C-205.42186203 57.02080299 -205.42186203 57.02080299 -206.82714844 56.56640625 C-208.0445723 56.17788231 -208.0445723 56.17788231 -209.28659058 55.7815094 C-211.14404297 54.97827148 -211.14404297 54.97827148 -212.14404297 52.97827148 C-199.24855368 49.35204723 -186.35267122 45.72722266 -173.45654297 42.10327148 C-172.47701534 41.82800755 -171.49748772 41.55274361 -170.48827744 41.26913834 C-134.62896787 31.19243595 -98.75996583 21.15065279 -62.88435555 11.13214588 C-59.06310426 10.06498667 -55.24193008 8.9975515 -51.42076111 7.93009758 C-48.82596956 7.20539031 -46.23104444 6.48116295 -43.6361084 5.75697327 C-42.83547407 5.53322368 -42.03483974 5.30947409 -41.20994377 5.07894421 C-39.6655587 4.64777731 -38.12083596 4.21781772 -36.57574654 3.78918171 C-33.09286237 2.81990175 -29.62115626 1.82832013 -26.16488647 0.76773071 C-24.94975372 0.39997528 -23.73462097 0.03221985 -22.48266602 -0.34667969 C-21.44377731 -0.67101486 -20.40488861 -0.99535004 -19.33451843 -1.32951355 C-12.40585101 -2.83277767 -6.66807782 -1.93837279 0 0 Z " fill="#4C4C4C" transform="translate(268.14404296875,42.021728515625)"/>
<path d="M0 0 C0 44.88 0 89.76 0 136 C-68.75 158 -68.75 158 -72 158 C-72 113.78 -72 69.56 -72 24 C-60.74713925 19.4988557 -60.74713925 19.4988557 -55.38867188 17.70996094 C-54.19463745 17.30984802 -53.00060303 16.90973511 -51.77038574 16.49749756 C-50.50322491 16.076303 -49.23601178 15.65526573 -47.96875 15.234375 C-46.64256051 14.79186171 -45.31643039 14.34917045 -43.99035645 13.90631104 C-41.23444949 12.98670038 -38.47784263 12.06922872 -35.72070312 11.15332031 C-32.18414807 9.97829784 -28.64944159 8.79781982 -25.11522675 7.61577988 C-22.3879751 6.7042928 -19.65978167 5.79565271 -16.93128967 4.88788605 C-15.62641532 4.45337264 -14.3218375 4.01796768 -13.01756287 3.58165741 C-11.20473208 2.97569367 -9.39048557 2.37397018 -7.57617188 1.77246094 C-6.54488159 1.42922791 -5.51359131 1.08599487 -4.4510498 0.73236084 C-2 0 -2 0 0 0 Z " fill="#F7BD30" transform="translate(360,304)"/>
<path d="M0 0 C4.76602251 0.68086036 8.41871065 1.30312481 12.85693359 2.75561523 C13.97610168 3.11861221 15.09526978 3.48160919 16.24835205 3.85560608 C18.05514435 4.45108498 18.05514435 4.45108498 19.8984375 5.05859375 C21.18786651 5.47874644 22.47748327 5.89832335 23.76727295 6.31736755 C26.52622327 7.21474535 29.28406668 8.11541645 32.04107666 9.01873779 C38.6898948 11.1967563 45.34454377 13.35685283 51.99894333 15.51774597 C53.5152673 16.01020924 55.03152511 16.50287625 56.54771805 16.9957428 C71.04664144 21.70852393 85.57882574 26.31003517 100.125 30.875 C133.49029083 41.35510602 166.74175893 52.18602962 200 63 C200 73.56 200 84.12 200 95 C194.50665199 93.779256 189.7087495 92.68289121 184.5 90.875 C177.73399186 88.56347178 170.93689745 86.35993446 164.125 84.1875 C163.05926758 83.84710693 161.99353516 83.50671387 160.89550781 83.15600586 C156.51980336 81.75902604 152.143478 80.36400659 147.76660156 78.97070312 C144.59406462 77.96068678 141.42189376 76.94953435 138.25 75.9375 C137.21504395 75.60733887 136.18008789 75.27717773 135.11376953 74.93701172 C128.38977734 72.78469838 121.69036994 70.5668839 115 68.3125 C107.38958828 65.7513931 99.74057225 63.40133752 92.02734375 61.171875 C81.06291314 57.9992784 70.23030566 54.42965649 59.41113281 50.79736328 C51.41289385 48.11931738 43.38130737 45.55147887 35.34301758 42.99658203 C27.41225039 40.46954028 19.51226488 37.85850825 11.63476562 35.16992188 C10.83232422 34.89857422 10.02988281 34.62722656 9.203125 34.34765625 C8.50864258 34.11054932 7.81416016 33.87344238 7.09863281 33.62915039 C4.77315824 32.93199497 2.38058203 32.47611641 0 32 C0 21.44 0 10.88 0 0 Z " fill="#F9D43A" transform="translate(56,120)"/>
<path d="M0 0 C0 7.59 0 15.18 0 23 C-50.27911395 39.97457266 -100.84832372 56.09675539 -151.47377014 72.00378418 C-158.63384844 74.25384245 -165.79074608 76.51372941 -172.9453125 78.78125 C-174.76383349 79.35726272 -176.58235559 79.93327196 -178.40087891 80.50927734 C-180.91873602 81.30687268 -183.43647476 82.10482987 -185.95379639 82.90411377 C-188.16671519 83.60661401 -190.38016396 84.30741814 -192.59375 85.0078125 C-194.42969727 85.59006592 -194.42969727 85.59006592 -196.30273438 86.18408203 C-199 87 -199 87 -200 87 C-200 79.41 -200 71.82 -200 64 C-194.76416545 62.03656204 -189.56340748 60.14976551 -184.25 58.43359375 C-183.52728912 58.19873764 -182.80457825 57.96388153 -182.05996704 57.72190857 C-179.70732753 56.95831335 -177.35373038 56.19772547 -175 55.4375 C-174.18521179 55.17366516 -173.37042358 54.90983032 -172.53094482 54.63800049 C-161.24894196 50.98541119 -149.9487602 47.39586259 -138.625 43.875 C-118.70831724 37.68019525 -98.86857836 31.25718237 -79.05078125 24.75390625 C-35.01745036 10.30572708 -35.01745036 10.30572708 -16.1875 4.375 C-15.08662048 4.02684738 -15.08662048 4.02684738 -13.96350098 3.67166138 C-11.94936084 3.03555207 -9.93398618 2.40356804 -7.91796875 1.7734375 C-6.81219482 1.42716309 -5.7064209 1.08088867 -4.56713867 0.72412109 C-2 0 -2 0 0 0 Z " fill="#010000" transform="translate(456,96)"/>
<path d="M0 0 C13.26633347 3.92316504 26.44225757 8.04363322 39.58108521 12.37258911 C44.96977955 14.14717423 50.36183231 15.91149649 55.75390625 17.67578125 C56.86315964 18.0387883 57.97241302 18.40179535 59.11528015 18.77580261 C70.2502056 22.4157142 81.40324109 25.99798993 92.5625 29.5625 C93.54372833 29.87599396 94.52495667 30.18948792 95.53591919 30.51248169 C100.86079017 32.21333786 106.18613171 33.91271547 111.51171875 35.61132812 C124.40633788 39.72411595 137.29946214 43.84158801 150.19254971 47.95917416 C155.0599245 49.5135726 159.92752026 51.06727656 164.79530525 52.62038994 C167.85019856 53.59518763 170.90494317 54.57045069 173.95965576 55.54581451 C175.38507711 56.00083659 176.81056147 56.45566134 178.2361145 56.91027069 C180.21169816 57.54031456 182.18704997 58.17108052 184.16235352 58.80200195 C185.8247683 59.33250908 185.8247683 59.33250908 187.52076721 59.87373352 C191.68905147 61.22305365 195.84359138 62.61453046 200 64 C200 71.59 200 79.18 200 87 C194.69667546 85.82148344 189.84809075 84.74114969 184.75732422 83.08325195 C183.60642807 82.71076828 182.45553192 82.33828461 181.26976013 81.95451355 C180.04378616 81.55315689 178.81781219 81.15180023 177.5546875 80.73828125 C176.24048775 80.31144489 174.9261585 79.88500708 173.61170959 79.4589386 C170.81939944 78.55305984 168.02789927 77.64474424 165.23703003 76.73443604 C160.81123192 75.29101076 156.38350161 73.85358162 151.95532227 72.41748047 C151.21536798 72.17749203 150.47541368 71.93750359 149.71303654 71.69024277 C148.21981615 71.20595837 146.72659011 70.72169143 145.23335838 70.23744202 C142.99515601 69.51141457 140.7571182 68.78488184 138.51911926 68.05822754 C126.66984377 64.21166455 114.80868972 60.4034197 102.9375 56.625 C101.14696865 56.05486284 99.35644136 55.48471293 97.56591797 54.91455078 C94.71772485 54.00760768 91.86952115 53.1006981 89.02124023 52.19403076 C80.28769919 49.41286126 71.55750555 46.62126885 62.82766914 43.82849884 C60.35129298 43.03631962 57.87486706 42.24429612 55.39842224 41.45233154 C54.57891744 41.19025406 53.75941263 40.92817657 52.91507435 40.65815735 C51.25572267 40.1275026 49.59636941 39.59685278 47.93701458 39.06620789 C43.82672959 37.75170966 39.716566 36.4368342 35.60665894 35.12115479 C31.72737155 33.87932158 27.84775718 32.63851511 23.96790886 31.39843559 C22.52647641 30.93751603 21.08516511 30.47621736 19.64398384 30.01451302 C17.6490421 29.37545503 15.65367368 28.73774629 13.65820312 28.1003418 C12.53643677 27.74143356 11.41467041 27.38252533 10.25891113 27.01274109 C6.85541865 25.95506982 3.42691635 24.97911896 0 24 C0 16.08 0 8.16 0 0 Z " fill="#1C1B1A" transform="translate(56,96)"/>
<path d="M0 0 C4.6715625 1.3921875 4.6715625 1.3921875 9.4375 2.8125 C10.39970459 3.09843018 11.36190918 3.38436035 12.35327148 3.67895508 C13.53771851 4.03316528 13.53771851 4.03316528 14.74609375 4.39453125 C15.62507324 4.65572754 16.50405273 4.91692383 17.40966797 5.18603516 C19.09471858 5.71553174 20.76751337 6.28636711 22.42236328 6.90380859 C32.01954588 10.48314416 39.90273735 6.93269108 49.3125 3.9375 C51.66198318 3.19415351 54.01220698 2.45314248 56.36328125 1.71484375 C57.39751221 1.38605225 58.43174316 1.05726074 59.49731445 0.71850586 C62 0 62 0 64 0 C64 10.56 64 21.12 64 32 C57.49761653 34.60095339 51.07729999 37.12842729 44.4375 39.3125 C43.25897461 39.72725586 43.25897461 39.72725586 42.05664062 40.15039062 C32.99326861 43.11183811 25.70908086 41.22797511 16.9375 38.125 C16.18662109 37.86847656 15.43574219 37.61195313 14.66210938 37.34765625 C9.73724337 35.6535364 4.88002236 33.83000838 0 32 C0 21.44 0 10.88 0 0 Z " fill="#F5BC30" transform="translate(224,237)"/>
<path d="M0 0 C0.33 0 0.66 0 1 0 C1 43.23 1 86.46 1 131 C-49 147 -49 147 -58 149 C-56.72443437 145.17330311 -55.16276852 144.45847907 -51.875 142.1875 C-39.2917171 133.26214818 -30.63978507 122.6589018 -22 110 C-21.43023437 109.16597656 -20.86046875 108.33195312 -20.2734375 107.47265625 C-7.14219777 86.93315025 -3.33451843 62.88199681 -2 39 C-1.95723938 38.23564636 -1.91447876 37.47129272 -1.87042236 36.68377686 C-1.19073226 24.45857616 -0.57766835 12.2304092 0 0 Z " fill="#F5A52A" transform="translate(359,309)"/>
<path d="M0 0 C0 10.56 0 21.12 0 32 C-2.97 32.99 -5.94 33.98 -9 35 C-10.55440752 35.54286949 -12.10710417 36.09073037 -13.65625 36.6484375 C-21.92593633 39.59996219 -30.19954325 42.45910266 -38.625 44.9375 C-39.34107422 45.14874512 -40.05714844 45.35999023 -40.79492188 45.57763672 C-45.73029285 47 -45.73029285 47 -48 47 C-48 36.44 -48 25.88 -48 15 C-40.18853764 12.21019201 -32.56646773 9.49222049 -24.65625 7.11328125 C-21.77349573 6.23551953 -18.90132057 5.33576174 -16.03125 4.41796875 C-15.16910889 4.14267334 -14.30696777 3.86737793 -13.41870117 3.58374023 C-11.70204478 3.034571 -9.98604252 2.48335216 -8.27075195 1.92993164 C-7.48659912 1.67977295 -6.70244629 1.42961426 -5.89453125 1.171875 C-5.19175049 0.9459668 -4.48896973 0.72005859 -3.76489258 0.48730469 C-2 0 -2 0 0 0 Z " fill="#F5BC30" transform="translate(432,191)"/>
<path d="M0 0 C6.79633007 1.85354457 13.4887735 3.72574401 20.16796875 5.91796875 C20.97365799 6.18007645 21.77934723 6.44218414 22.60945129 6.7122345 C25.13627346 7.5348747 27.6619014 8.36111195 30.1875 9.1875 C31.91984347 9.75219371 33.65226476 10.31664873 35.38476562 10.88085938 C39.59089639 12.25071832 43.79538661 13.62545584 48 15 C48 25.56 48 36.12 48 47 C31.55892003 43.34642667 15.8733632 37.57457398 0 32 C0 21.44 0 10.88 0 0 Z " fill="#F9D43A" transform="translate(80,191)"/>
<path d="M0 0 C3.0525 0.9075 6.105 1.815 9.25 2.75 C10.18489258 3.02682617 11.11978516 3.30365234 12.08300781 3.58886719 C18.78008366 5.58943579 25.35926142 7.78642047 32 10 C32 20.56 32 31.12 32 42 C26.20037696 40.71119488 20.98993713 39.45256609 15.4375 37.5625 C13.61025391 36.94568359 13.61025391 36.94568359 11.74609375 36.31640625 C7.81065271 34.9334619 3.90576462 33.46466173 0 32 C0 21.44 0 10.88 0 0 Z " fill="#F9D43A" transform="translate(224,237)"/>
<path d="M0 0 C3.03867819 1.34603045 5.00385612 2.80424173 7.234375 5.2578125 C7.80800781 5.88300781 8.38164062 6.50820312 8.97265625 7.15234375 C9.55917969 7.80332031 10.14570313 8.45429688 10.75 9.125 C11.35199219 9.78371094 11.95398438 10.44242188 12.57421875 11.12109375 C14.05480215 12.74268509 15.52977125 14.36902454 17 16 C15.68692628 18.89852365 14.27315362 20.98277217 12.03125 23.234375 C11.46019531 23.80800781 10.88914062 24.38164062 10.30078125 24.97265625 C9.70652344 25.55917969 9.11226563 26.14570313 8.5 26.75 C7.90574219 27.35199219 7.31148438 27.95398438 6.69921875 28.57421875 C6.12816406 29.14269531 5.55710937 29.71117187 4.96875 30.296875 C4.44732422 30.81604492 3.92589844 31.33521484 3.38867188 31.87011719 C2 33 2 33 0 33 C-1.4453125 31.49609375 -1.4453125 31.49609375 -3.125 29.4375 C-6.73659577 25.17201531 -10.70858022 21.56689436 -15 18 C-13.66465724 15.05886531 -12.17535119 12.89154831 -9.9609375 10.546875 C-9.38085938 9.928125 -8.80078125 9.309375 -8.203125 8.671875 C-7.59984375 8.03765625 -6.9965625 7.4034375 -6.375 6.75 C-5.76398438 6.1003125 -5.15296875 5.450625 -4.5234375 4.78125 C-3.01971926 3.18354937 -1.51184263 1.59000851 0 0 Z " fill="#F1B82F" transform="translate(335,223)"/>
<path d="M0 0 C3.03867819 1.34603045 5.00385612 2.80424173 7.234375 5.2578125 C7.80800781 5.88300781 8.38164062 6.50820312 8.97265625 7.15234375 C9.55917969 7.80332031 10.14570313 8.45429688 10.75 9.125 C11.35199219 9.78371094 11.95398438 10.44242188 12.57421875 11.12109375 C14.05480215 12.74268509 15.52977125 14.36902454 17 16 C15.68692628 18.89852365 14.27315362 20.98277217 12.03125 23.234375 C11.46019531 23.80800781 10.88914063 24.38164062 10.30078125 24.97265625 C9.70652344 25.55917969 9.11226562 26.14570313 8.5 26.75 C7.90574219 27.35199219 7.31148437 27.95398438 6.69921875 28.57421875 C6.12816406 29.14269531 5.55710938 29.71117187 4.96875 30.296875 C4.44732422 30.81604492 3.92589844 31.33521484 3.38867188 31.87011719 C2 33 2 33 0 33 C-1.4453125 31.49609375 -1.4453125 31.49609375 -3.125 29.4375 C-6.73659577 25.17201531 -10.70858022 21.56689436 -15 18 C-13.66465724 15.05886531 -12.17535119 12.89154831 -9.9609375 10.546875 C-9.38085938 9.928125 -8.80078125 9.309375 -8.203125 8.671875 C-7.59984375 8.03765625 -6.9965625 7.4034375 -6.375 6.75 C-5.76398438 6.1003125 -5.15296875 5.450625 -4.5234375 4.78125 C-3.01971926 3.18354937 -1.51184263 1.59000851 0 0 Z " fill="#F4D03A" transform="translate(175,223)"/>
</svg>
