<svg width="24" height="24" viewBox="0 0 24 24" fill="none" xmlns="http://www.w3.org/2000/svg">
<path d="M15.0083 5.00114C13.7426 3.18697 11.3847 2 9.00445 2C5.136 2 2 5.13521 2 9.00267C2 12.702 4.86918 15.7488 8.50413 16.0053" stroke="#141B34" stroke-width="1.5" stroke-linecap="round"/>
<path d="M9.00486 7.00195V9.50291L7.50391 10.5033" stroke="#141B34" stroke-width="1.5" stroke-linecap="round" stroke-linejoin="round"/>
<path d="M12.6129 15.5481C11.2517 13.892 11.0195 12.229 12.967 10.2097C15.0129 8.38457 16.1912 7.52139 16.505 7.00195C16.8189 7.52139 18.0163 8.38457 20.0622 10.2097C21.9164 11.8638 21.7997 13.892 20.4386 15.5481M12.6129 15.5481H12.0904M12.6129 15.5481H20.4386M20.4386 15.5481H20.8989M11.0195 15.5481H12.0904M12.0904 15.5481V21.0929C12.1303 21.7606 12.0904 22.0722 13.3015 21.9848H16.4862M20.8989 15.5481H21.9981M20.8989 15.5481V21.1944C21.0158 22.1013 20.2936 21.9422 19.8318 21.9848H16.4862M16.4862 21.9848L16.5215 19.8502" stroke="#141B34" stroke-width="1.5" stroke-linecap="round" stroke-linejoin="round"/>
</svg>
